<?xml version="1.0" encoding="UTF-8" standalone="no"?>
<svg
   xmlns:dc="http://purl.org/dc/elements/1.1/"
   xmlns:cc="http://creativecommons.org/ns#"
   xmlns:rdf="http://www.w3.org/1999/02/22-rdf-syntax-ns#"
   xmlns:svg="http://www.w3.org/2000/svg"
   xmlns="http://www.w3.org/2000/svg"
   viewBox="0 0 618.82666 597.33331"
   height="597.33331"
   width="618.82666"
   xml:space="preserve"
   id="svg2"
   version="1.1"><metadata
     id="metadata8"><rdf:RDF><cc:Work
         rdf:about=""><dc:format>image/svg+xml</dc:format><dc:type
           rdf:resource="http://purl.org/dc/dcmitype/StillImage" /></cc:Work></rdf:RDF></metadata><defs
     id="defs6" /><g
     transform="matrix(1.3333333,0,0,-1.3333333,0,597.33333)"
     id="g10"><g
       transform="scale(0.1)"
       id="g12"><path
         id="path14"
         style="fill:#e54d00;fill-opacity:1;fill-rule:nonzero;stroke:none"
         d="m 2400.09,3360 c 618.56,0 1120,-501.44 1120,-1120 0,-618.56 -501.44,-1120 -1120,-1120 -618.56,0 -1120,501.44 -1120,1120 0.66,618.29 501.71,1119.34 1120,1120 z m 0,-2400 c 706.92,0 1280,573.08 1280,1280 0,706.93 -573.08,1280 -1280,1280 -706.93,0 -1280,-573.07 -1280,-1280 0.84,-706.57 573.42,-1279.16 1280,-1280" /><path
         id="path16"
         style="fill:#e54d00;fill-opacity:1;fill-rule:nonzero;stroke:none"
         d="m 3120.09,2320 c 44.18,0 80,-35.81 80,-80 0,-44.18 -35.82,-80 -80,-80 -44.18,0 -80,35.82 -80,80 0,44.19 35.82,80 80,80 z m 0,-320 c 132.55,0 240,107.46 240,240 0,132.55 -107.45,240 -240,240 -132.55,0 -240,-107.45 -240,-240 0,-132.54 107.45,-240 240,-240" /><path
         id="path18"
         style="fill:#e54d00;fill-opacity:1;fill-rule:nonzero;stroke:none"
         d="m 1680.09,2320 c 44.18,0 80,-35.81 80,-80 0,-44.18 -35.82,-80 -80,-80 -44.18,0 -80,35.82 -80,80 0,44.19 35.82,80 80,80 z m 0,-320 c 132.55,0 240,107.46 240,240 0,132.55 -107.45,240 -240,240 -132.55,0 -240,-107.45 -240,-240 0,-132.54 107.45,-240 240,-240" /><path
         id="path20"
         style="fill:#e54d00;fill-opacity:1;fill-rule:nonzero;stroke:none"
         d="m 2400.09,1440 c -44.18,0 -80,35.82 -80,80 0,44.19 35.82,80 80,80 44.18,0 80,-35.81 80,-80 0,-44.18 -35.82,-80 -80,-80 z m 0,320 c -132.55,0 -240,-107.45 -240,-240 0,-132.54 107.45,-240 240,-240 132.55,0 240,107.46 240,240 0,132.55 -107.45,240 -240,240" /><path
         id="path22"
         style="fill:#e54d00;fill-opacity:1;fill-rule:nonzero;stroke:none"
         d="m 2400.09,3040 c 44.18,0 80,-35.81 80,-80 0,-44.18 -35.82,-80 -80,-80 -44.18,0 -80,35.82 -80,80 0,44.19 35.82,80 80,80 z m 0,-320 c 132.55,0 240,107.45 240,240 0,132.55 -107.45,240 -240,240 -132.55,0 -240,-107.45 -240,-240 0,-132.55 107.45,-240 240,-240" /><path
         id="path24"
         style="fill:#e54d00;fill-opacity:1;fill-rule:nonzero;stroke:none"
         d="M 560.09,3514.72 703.449,3371.36 816.09,3484.48 656.969,3643.6 c 16,19.53 30,40 46.398,58.96 14.363,16.71 35.102,26.58 57.121,27.2 h 3.121 c 21.489,0 42.075,-8.65 57.121,-24 l 340.48,-340.48 c 29.05,-30 30.54,-77.18 3.44,-108.96 -486.099,-590.66 -486.099,-1442.77 0,-2033.44 27.16,-31.74 25.71,-78.94 -3.36,-108.96 L 820.809,773.441 c -15.832,-16.082 -37.684,-24.789 -60.243,-24 -22.054,0.629 -42.828,10.539 -57.199,27.278 -16.398,18.961 -30.64,39.363 -46.32,58.801 L 816.168,994.719 703.047,1107.84 559.688,965.199 C 26.8945,1731.54 26.8945,2748.39 559.688,3514.72 Z M 4480.09,2240 C 4479.82,1091.25 3548.35,160.219 2399.6,160.492 1875.91,160.621 1371.54,358.281 987.211,714 l 287.199,287.2 c 87.75,88.07 93.72,228.57 13.76,323.76 -437.479,531.6 -437.479,1298.49 0,1830.08 79.94,95.22 73.93,235.72 -13.84,323.76 L 987.129,3766 C 1830.14,4546.36 3146.15,4495.57 3926.5,3652.55 4282.29,3268.19 4479.98,2763.76 4480.09,2240 Z M 754.648,590.32 h 8.801 c 34.164,0.231 67.895,7.7 98.961,21.922 898.99,-849.871 2316.72,-810.051 3166.59,88.93 849.87,898.988 810.05,2316.718 -88.93,3166.598 -416.19,393.44 -967.26,612.53 -1539.98,612.23 -572.32,1.41 -1123.15,-217.87 -1537.922,-612.24 -96.395,44.78 -210.813,19.97 -280,-60.72 -776.223,-900.47 -776.223,-2233.52 0,-3134.001 43.547,-50.277 106.008,-80.238 172.48,-82.719" /><path
         id="path26"
         style="fill:#e54d00;fill-opacity:1;fill-rule:nonzero;stroke:none"
         d="m 3362.03,3314.88 113.1,113.18 113.18,-113.1 -113.1,-113.18 -113.18,113.1" /><path
         id="path28"
         style="fill:#e54d00;fill-opacity:1;fill-rule:nonzero;stroke:none"
         d="M 3701.18,3428 3814.32,3541.14 3927.45,3428 3814.32,3314.86 3701.18,3428" /><path
         id="path30"
         style="fill:#e54d00;fill-opacity:1;fill-rule:nonzero;stroke:none"
         d="m 3362.32,1165.21 113.17,113.1 113.1,-113.18 -113.18,-113.1 -113.09,113.18" /><path
         id="path32"
         style="fill:#e54d00;fill-opacity:1;fill-rule:nonzero;stroke:none"
         d="m 3475.19,826.199 113.14,113.133 113.14,-113.133 -113.14,-113.14 -113.14,113.14" /><path
         id="path34"
         style="fill:#e54d00;fill-opacity:1;fill-rule:nonzero;stroke:none"
         d="m 3840.09,2320 h 160 v -160 h -160 v 160" /><path
         id="path36"
         style="fill:#e54d00;fill-opacity:1;fill-rule:nonzero;stroke:none"
         d="m 4160.09,2160 h 160 v -160 h -160 v 160" /><path
         id="path38"
         style="fill:#e54d00;fill-opacity:1;fill-rule:nonzero;stroke:none"
         d="m 2320.09,3840 h 160 v -160 h -160 v 160" /><path
         id="path40"
         style="fill:#e54d00;fill-opacity:1;fill-rule:nonzero;stroke:none"
         d="m 2320.09,800 h 160 V 640 h -160 v 160" /><path
         id="path42"
         style="fill:#e54d00;fill-opacity:1;fill-rule:nonzero;stroke:none"
         d="m 2480.09,4160 h 160 v -160 h -160 v 160" /><path
         id="path44"
         style="fill:#e54d00;fill-opacity:1;fill-rule:nonzero;stroke:none"
         d="m 2160.09,480 h 160 V 320 h -160 v 160" /><path
         id="path46"
         style="fill:#e54d00;fill-opacity:1;fill-rule:nonzero;stroke:none"
         d="m 2400.09,2400 c 88.36,0 160,-71.63 160,-160 0,-88.36 -71.64,-160 -160,-160 -88.37,0 -160,71.64 -160,160 0,88.37 71.63,160 160,160 z m 0,-480 c 176.73,0 320,143.27 320,320 0,176.73 -143.27,320 -320,320 -176.73,0 -320,-143.27 -320,-320 0,-176.73 143.27,-320 320,-320" /><path
         id="path48"
         style="fill:#e54d00;fill-opacity:1;fill-rule:nonzero;stroke:none"
         d="m 777.688,1376.8 c -290.141,538.9 -290.141,1187.51 0,1726.4 l -141.118,75.52 c -315.312,-586.09 -315.312,-1291.34 0,-1877.44 l 141.118,75.52" /><path
         id="path50"
         style="fill:#e54d00;fill-opacity:1;fill-rule:nonzero;stroke:none"
         d="M 816.137,3258.24 929.273,3371.38 1042.41,3258.24 929.273,3145.1 816.137,3258.24" /><path
         id="path52"
         style="fill:#e54d00;fill-opacity:1;fill-rule:nonzero;stroke:none"
         d="M 816.152,1221.75 929.293,1334.88 1042.43,1221.75 929.293,1108.61 816.152,1221.75" /></g></g></svg>
