<?xml version="1.0" encoding="UTF-8" standalone="no"?>
<svg
   xmlns:dc="http://purl.org/dc/elements/1.1/"
   xmlns:cc="http://creativecommons.org/ns#"
   xmlns:rdf="http://www.w3.org/1999/02/22-rdf-syntax-ns#"
   xmlns:svg="http://www.w3.org/2000/svg"
   xmlns="http://www.w3.org/2000/svg"
   viewBox="0 0 512 512"
   height="512"
   width="512"
   xml:space="preserve"
   id="svg2"
   version="1.1"><metadata
     id="metadata8"><rdf:RDF><cc:Work
         rdf:about=""><dc:format>image/svg+xml</dc:format><dc:type
           rdf:resource="http://purl.org/dc/dcmitype/StillImage" /></cc:Work></rdf:RDF></metadata><defs
     id="defs6" /><g
     transform="matrix(1.3333333,0,0,-1.3333333,0,512)"
     id="g10"><g
       transform="scale(0.1)"
       id="g12"><path
         id="path14"
         style="fill:#e54d00;fill-opacity:1;fill-rule:nonzero;stroke:none"
         d="m 3783.75,1112.54 h -76.05 l -53.99,130.23 c -24.57,59.34 -76.25,104.61 -138.16,121.1 -21.41,5.7 -28.6,10.58 -29.42,11.17 -30.23,21.6 -65.86,33.01 -103.01,33.01 -19.45,0 -38.67,-3.25 -56.87,-9.42 -24.14,31.68 -56.64,56.02 -93.55,70.43 v 221.06 c 68.08,7.26 182.03,38.4 298.04,154.45 179.57,179.53 155.94,354.14 154.85,361.48 -3.68,24.5 -22.89,43.72 -47.39,47.39 -7.34,1.09 -181.95,24.68 -361.48,-154.85 -16.33,-16.29 -30.9,-32.57 -44.02,-48.67 v 177.31 c 40.78,41.17 124.45,149.41 124.45,345.66 0,253.91 -140.16,360.66 -146.13,365.08 -19.89,14.73 -47.07,14.73 -67,0 -5.93,-4.42 -146.13,-111.17 -146.13,-365.08 0,-192.81 80.78,-300.7 122.31,-343.44 v -179.53 c -13.13,16.13 -27.7,32.38 -44.03,48.67 -179.53,179.57 -354.18,155.9 -361.52,154.85 -24.49,-3.67 -43.71,-22.89 -47.35,-47.39 -1.09,-7.34 -24.72,-181.95 154.85,-361.48 116.01,-116.05 229.92,-147.19 298.05,-154.45 v -209.18 c -18.36,-3.01 -36.25,-8.4 -53.21,-15.98 -45.94,49.96 -111.25,79.45 -180.86,79.45 -75.58,0 -145.9,-35.23 -191.79,-92.34 -33.36,20.59 -72,31.72 -112.54,31.72 -16.53,0 -32.97,-1.91 -48.95,-5.63 -32.89,43.29 -84.61,69.96 -141.21,69.96 -56.76,0 -108.52,-26.75 -141.37,-70.15 -20.62,4.88 -42.07,6.76 -63.39,5.39 -41.1,83.28 -119.69,143.24 -210.63,161.29 v 283.08 c 84.26,5.79 241.41,40.63 402.89,202.15 232.81,232.78 202.54,456.6 201.13,466.02 -3.63,24.49 -22.85,43.67 -47.34,47.34 -9.41,1.41 -233.16,31.64 -465.98,-201.13 -36.25,-36.25 -66.09,-72.27 -90.7,-107.31 v 281.06 c 68.13,7.26 182.03,38.4 298.09,154.45 179.53,179.53 155.89,354.14 154.8,361.49 -3.63,24.49 -22.85,43.71 -47.34,47.34 -7.35,1.09 -181.96,24.77 -361.53,-154.8 -16.29,-16.29 -30.89,-32.54 -44.02,-48.68 v 143.64 c 41.17,41.95 123.4,150.04 123.4,344.53 0,253.9 -140.2,360.7 -146.17,365.12 -19.89,14.72 -47.07,14.72 -66.96,0 -5.97,-4.42 -146.17,-111.18 -146.17,-365.12 0,-194.49 82.23,-302.58 123.4,-344.53 v -143.64 c -13.13,16.14 -27.7,32.39 -43.98,48.68 -179.57,179.57 -354.18,155.89 -361.53,154.8 -24.49,-3.63 -43.71,-22.85 -47.34,-47.34 -1.1,-7.35 -24.73,-181.96 154.8,-361.49 116.06,-116.05 229.96,-147.19 298.05,-154.45 V 2334.8 c -24.57,35.04 -54.45,71.06 -90.66,107.31 -232.82,232.77 -456.61,202.54 -466.02,201.13 -24.49,-3.67 -43.71,-22.89 -47.34,-47.34 -1.41,-9.42 -31.64,-233.24 201.13,-466.02 161.52,-161.52 318.67,-196.36 402.93,-202.15 v -282.65 c -91.95,-17.46 -171.6,-77.7 -213.09,-161.72 -21.32,1.33 -42.73,-0.51 -63.4,-5.43 -32.85,43.44 -84.6,70.16 -141.4,70.16 -56.56,0 -108.28,-26.68 -141.17,-69.97 -15.98,3.76 -32.43,5.67 -48.91,5.67 -40.55,0 -79.22,-11.13 -112.54,-31.72 -45.9,57.11 -116.21,92.31 -191.8,92.31 -69.601,0 -134.96,-29.46 -180.89,-79.46 -16.18,7.27 -33.25,12.46 -50.75,15.55 v 209.65 c 68.129,7.22 182.039,38.4 298.05,154.41 179.57,179.57 155.94,354.18 154.84,361.52 -3.67,24.5 -22.89,43.72 -47.38,47.35 -7.34,1.09 -181.952,24.72 -361.479,-154.81 -16.332,-16.32 -30.902,-32.57 -44.031,-48.67 v 177.31 c 40.781,41.17 124.461,149.41 124.461,345.62 0,253.95 -140.16,360.7 -146.141,365.12 -19.879,14.73 -47.07,14.73 -66.988,0 -5.942,-4.42 -146.133,-111.17 -146.133,-365.12 0,-192.81 80.781,-300.66 122.301,-343.4 v -179.53 c -13.121,16.1 -27.692,32.35 -44.02,48.67 -179.531,179.53 -354.179,155.9 -361.519,154.81 -24.5,-3.63 -43.711,-22.85 -47.352,-47.35 -1.09,-7.34 -24.719,-181.95 154.813,-361.52 116.047,-116.01 229.957,-147.19 298.078,-154.41 V 1470 c -37.93,-14.26 -71.32,-39.02 -96.012,-71.37 -18.168,6.17 -37.379,9.42 -56.879,9.42 -37.148,0 -72.769,-11.45 -103,-33.01 -0.711,-0.51 -7.5,-5.12 -27.269,-10.59 -63.91,-17.61 -116.129,-64.72 -139.692,-125.97 L 136.09,1112.54 H 56.25 C 25.1992,1112.54 0,1087.38 0,1056.29 V 753.199 c 0,-31.051 25.1992,-56.25 56.25,-56.25 h 57.379 V 207.73 C 113.629,93.1992 206.879,0 321.449,0 H 1853.91 c 31.09,0 56.25,25.1992 56.25,56.25 0,31.0508 -25.16,56.25 -56.25,56.25 H 321.449 c -52.539,0 -95.32,42.73 -95.32,95.23 V 696.988 H 3005.47 c 31.05,0 56.25,25.16 56.25,56.25 0,31.063 -25.2,56.25 -56.25,56.25 H 112.5 v 190.552 h 646.129 c 31.062,0 56.25,25.19 56.25,56.25 0,31.09 -25.188,56.25 -56.25,56.25 H 256.602 l 32.886,85.58 c 10.782,28.09 34.922,49.73 64.614,57.9 26.679,7.38 47.187,16.36 62.738,27.5 11.012,7.85 24.058,12.03 37.609,12.03 15.391,0 30.352,-5.55 42.153,-15.67 14.019,-11.99 33.007,-16.36 50.898,-11.68 17.852,4.69 32.27,17.85 38.551,35.2 14.73,40.62 53.558,67.89 96.609,67.89 24.219,0 47.809,-8.67 66.36,-24.41 12.89,-10.9 30,-15.47 46.601,-12.39 16.609,3.09 30.938,13.44 39.07,28.24 23.43,42.66 68.161,69.18 116.758,69.18 55.461,0 105.661,-34.96 124.921,-86.99 7.11,-19.26 24.18,-33.08 44.45,-36.13 20.27,-3.05 40.66,5.27 53.09,21.6 19.76,26.02 49.61,40.9 81.87,40.9 16.95,0 33.67,-4.18 48.4,-12.11 14.65,-7.89 32.03,-8.91 47.46,-2.77 15.47,6.13 27.42,18.82 32.62,34.57 8.86,26.72 33.63,44.64 61.64,44.64 28.16,0 53.01,-18 61.76,-44.84 5.15,-15.9 17.18,-28.67 32.73,-34.84 15.55,-6.17 33.05,-5.12 47.73,2.93 24.03,13.16 53.4,16.17 80.79,7.38 14.41,-4.61 30.11,-3.24 43.51,3.91 13.4,7.11 23.36,19.29 27.62,33.86 23.08,78.87 96.56,133.95 178.75,133.95 82.19,0 155.66,-55.08 178.67,-133.91 4.26,-14.53 14.18,-26.76 27.58,-33.9 13.4,-7.11 29.06,-8.56 43.51,-3.95 27.66,8.83 56.88,5.82 80.94,-7.3 14.69,-8.05 32.15,-9.14 47.74,-2.97 15.54,6.17 27.54,18.94 32.73,34.84 8.75,26.84 33.52,44.84 61.68,44.84 28.05,0 52.85,-17.92 61.68,-44.6 5.23,-15.79 17.19,-28.48 32.62,-34.61 15.47,-6.14 32.85,-5.12 47.46,2.77 14.72,7.93 31.48,12.11 48.4,12.11 32.3,0 62.15,-14.88 81.91,-40.9 12.42,-16.33 32.74,-24.65 53.05,-21.56 20.31,3.01 37.34,16.83 44.45,36.09 19.26,52.03 69.45,86.99 124.92,86.99 48.6,0 93.36,-26.48 116.76,-69.18 8.13,-14.8 22.5,-25.15 39.06,-28.24 16.64,-3.04 33.71,1.49 46.6,12.42 18.6,15.75 42.15,24.38 66.41,24.38 43.01,0 81.84,-27.27 96.56,-67.89 6.33,-17.35 20.75,-30.47 38.6,-35.2 17.85,-4.65 36.87,-0.31 50.9,11.68 11.75,10.12 26.71,15.67 42.1,15.67 13.6,0 26.61,-4.18 37.54,-12 16.18,-11.56 37.74,-20.85 65.94,-28.39 28.32,-7.5 51.92,-28.25 63.2,-55.43 l 36.1,-87.19 H 1022.62 c -31.061,0 -56.249,-25.16 -56.249,-56.25 0,-31.06 25.188,-56.25 56.249,-56.25 H 3727.5 V 809.488 h -458.01 c -31.09,0 -56.25,-25.187 -56.25,-56.25 0,-31.09 25.16,-56.25 56.25,-56.25 h 344.38 V 207.73 c 0,-52.5 -42.78,-95.23 -95.32,-95.23 H 2117.93 c -31.05,0 -56.25,-25.1992 -56.25,-56.25 0,-31.0508 25.2,-56.25 56.25,-56.25 h 1400.62 c 114.57,0 207.82,93.1992 207.82,207.73 v 489.258 h 57.38 c 31.05,0 56.25,25.16 56.25,56.25 v 303.052 c 0,31.09 -25.2,56.25 -56.25,56.25 z m -427.5,906.52 c 85.7,85.71 166.09,112.62 215.47,120.55 -7.97,-49.53 -34.88,-129.84 -120.51,-215.51 -85.59,-85.55 -165.82,-112.5 -215.23,-120.51 8.2,49.61 35.19,130.39 120.27,215.47 z m -454.57,-94.96 c -85.7,85.74 -112.62,166.1 -120.59,215.47 49.57,-7.97 129.89,-34.84 215.55,-120.51 85.55,-85.54 112.5,-165.78 120.51,-215.19 -49.61,8.16 -130.39,35.15 -215.47,120.23 z m -755.2,438.48 c 132.82,132.77 256.96,163.16 322.23,169.14 -5.94,-65.51 -36.41,-189.57 -169.1,-322.27 -132.81,-132.81 -256.91,-163.2 -322.23,-169.14 5.94,65.47 36.41,189.53 169.1,322.27 z m -46.68,582.22 c 85.75,85.71 166.1,112.62 215.47,120.55 -7.97,-49.53 -34.84,-129.84 -120.5,-215.47 -85.71,-85.74 -166.1,-112.61 -215.47,-120.58 7.97,49.57 34.88,129.88 120.5,215.5 z m -454.57,-94.96 c -85.7,85.75 -112.57,166.1 -120.54,215.47 49.53,-7.97 129.84,-34.84 215.51,-120.51 85.7,-85.7 112.57,-166.09 120.54,-215.46 -49.53,7.96 -129.84,34.88 -215.51,120.5 z m -104.84,-640.39 c -132.77,132.78 -163.2,256.92 -169.14,322.23 65.51,-5.98 189.57,-36.41 322.27,-169.1 132.81,-132.81 163.2,-256.96 169.14,-322.23 -65.51,5.94 -189.57,36.37 -322.27,169.1 z M 843.359,2019.06 c 85.743,85.71 166.091,112.62 215.511,120.55 -7.97,-49.53 -34.89,-129.84 -120.55,-215.51 -85.55,-85.55 -165.781,-112.5 -215.199,-120.51 8.168,49.61 35.199,130.39 120.238,215.47 z m -454.57,-94.96 c -85.699,85.74 -112.578,166.1 -120.551,215.47 49.532,-7.97 129.852,-34.84 215.512,-120.51 85.551,-85.54 112.5,-165.78 120.512,-215.19 -49.614,8.16 -130.391,35.15 -215.473,120.23 z m 275.82,886.41 c 29.411,-40.67 67.192,-116.49 67.192,-237.62 0,-121.25 -37.821,-197.07 -67.11,-237.62 -29.421,40.67 -67.191,116.49 -67.191,237.62 0,121.21 37.809,197.07 67.109,237.62 z m 1255.351,890.94 c 29.42,-40.67 67.19,-116.49 67.19,-237.62 0,-121.21 -37.81,-197.03 -67.11,-237.62 -29.42,40.7 -67.19,116.49 -67.19,237.62 0,121.25 37.81,197.07 67.11,237.62 z M 3177.5,2810.51 c 29.41,-40.67 67.15,-116.49 67.15,-237.62 0,-121.25 -37.81,-197.07 -67.11,-237.62 -29.42,40.67 -67.15,116.49 -67.15,237.62 0,121.21 37.81,197.07 67.11,237.62 z" /></g></g></svg>
