<?xml version="1.0" encoding="UTF-8" standalone="no"?>
<svg
   xmlns:dc="http://purl.org/dc/elements/1.1/"
   xmlns:cc="http://creativecommons.org/ns#"
   xmlns:rdf="http://www.w3.org/1999/02/22-rdf-syntax-ns#"
   xmlns:svg="http://www.w3.org/2000/svg"
   xmlns="http://www.w3.org/2000/svg"
   viewBox="0 0 241.21333 259.41333"
   height="259.41333"
   width="241.21333"
   xml:space="preserve"
   id="svg2"
   style="cursor: pointer;"
   version="1.1"><metadata
     id="metadata8"><rdf:RDF><cc:Work
         rdf:about=""><dc:format>image/svg+xml</dc:format><dc:type
           rdf:resource="http://purl.org/dc/dcmitype/StillImage" /></cc:Work></rdf:RDF></metadata><defs
     id="defs6" /><g
     transform="matrix(1.3333333,0,0,-1.3333333,0,259.41333)"
     id="g10"><g
       transform="scale(0.1)"
       id="g12"><path
         id="path14"
         style="fill: #ffffff;fill-opacity:1;fill-rule:nonzero;stroke:none"
         d="M 512,1433.59 H 68.2617 v 443.73 H 511.988 v -443.73 z m 34.129,512 H 34.1289 C 15.2891,1945.59 0,1930.32 0,1911.46 v -512 c 0,-18.86 15.2891,-34.13 34.1289,-34.13 H 546.129 c 18.84,0 34.133,15.27 34.133,34.13 v 512 c 0,18.86 -15.293,34.13 -34.133,34.13" /><path
         id="path16"
         style="fill: #ffffff;fill-opacity:1;fill-rule:nonzero;stroke:none"
         d="M 512,750.922 H 68.2617 V 1194.66 H 511.988 V 750.922 Z m 34.129,511.998 H 34.1289 C 15.2891,1262.92 0,1247.65 0,1228.79 V 716.789 C 0,697.93 15.2891,682.66 34.1289,682.66 H 546.129 c 18.84,0 34.133,15.281 34.133,34.129 v 512.001 c 0,18.86 -15.293,34.13 -34.133,34.13" /><path
         id="path18"
         style="fill: #ffffff;fill-opacity:1;fill-rule:nonzero;stroke:none"
         d="m 1774.93,1911.46 h -1024 c -18.84,0 -34.129,-15.27 -34.129,-34.13 0,-18.86 15.289,-34.13 34.129,-34.13 h 1024 c 18.86,0 34.13,15.27 34.13,34.13 0,18.86 -15.27,34.13 -34.13,34.13" /><path
         id="path20"
         style="fill: #ffffff;fill-opacity:1;fill-rule:nonzero;stroke:none"
         d="M 1433.6,1672.52 H 750.93 c -18.84,0 -34.129,-15.27 -34.129,-34.13 0,-18.86 15.289,-34.13 34.129,-34.13 h 682.67 c 18.86,0 34.13,15.27 34.13,34.13 0,18.86 -15.27,34.13 -34.13,34.13" /><path
         id="path22"
         style="fill: #ffffff;fill-opacity:1;fill-rule:nonzero;stroke:none"
         d="M 1604.26,1228.79 H 750.93 c -18.84,0 -34.129,-15.27 -34.129,-34.13 0,-18.86 15.289,-34.13 34.129,-34.13 h 853.33 c 18.86,0 34.13,15.27 34.13,34.13 0,18.86 -15.27,34.13 -34.13,34.13" /><path
         id="path24"
         style="fill: #ffffff;fill-opacity:1;fill-rule:nonzero;stroke:none"
         d="m 1058.13,989.859 h -307.2 c -18.84,0 -34.129,-15.269 -34.129,-34.129 0,-18.859 15.289,-34.128 34.129,-34.128 h 307.2 c 18.86,0 34.13,15.269 34.13,34.128 0,18.86 -15.27,34.129 -34.13,34.129" /><path
         id="path26"
         style="fill: #ffffff;fill-opacity:1;fill-rule:nonzero;stroke:none"
         d="M 512,68.2617 H 68.2617 V 511.988 H 511.988 V 68.2617 Z M 546.129,580.262 H 34.1289 C 15.2891,580.262 0,564.988 0,546.129 V 34.1289 C 0,15.2695 15.2891,0 34.1289,0 H 546.129 c 18.84,0 34.133,15.2695 34.133,34.1289 V 546.129 c 0,18.851 -15.293,34.133 -34.133,34.133" /><path
         id="path28"
         style="fill: #ffffff;fill-opacity:1;fill-rule:nonzero;stroke:none"
         d="m 1672.53,546.121 h -921.6 c -18.84,0 -34.129,-15.269 -34.129,-34.133 0,-18.859 15.289,-34.129 34.129,-34.129 h 921.6 c 18.86,0 34.13,15.27 34.13,34.129 0,18.864 -15.27,34.133 -34.13,34.133" /><path
         id="path30"
         style="fill: #ffffff;fill-opacity:1;fill-rule:nonzero;stroke:none"
         d="M 1536,307.191 H 750.93 c -18.84,0 -34.129,-15.269 -34.129,-34.132 0,-18.86 15.289,-34.129 34.129,-34.129 H 1536 c 18.86,0 34.13,15.269 34.13,34.129 0,18.863 -15.27,34.132 -34.13,34.132" /><path
         id="path32"
         style="fill: #ffffff;fill-opacity:1;fill-rule:nonzero;stroke:none"
         d="m 290.129,1570.12 c -47.051,0 -85.328,38.26 -85.328,85.33 0,47.07 38.277,85.33 85.328,85.33 47.051,0 85.332,-38.26 85.332,-85.33 0,-47.07 -38.281,-85.33 -85.332,-85.33 z m 0,238.94 c -84.699,0 -153.598,-68.9 -153.598,-153.6 0,-84.7 68.899,-153.6 153.598,-153.6 84.699,0 153.601,68.9 153.601,153.6 0,84.7 -68.902,153.6 -153.601,153.6" /><path
         id="path34"
         style="fill: #ffffff;fill-opacity:1;fill-rule:nonzero;stroke:none"
         d="m 290.129,887.461 c -47.051,0 -85.328,38.258 -85.328,85.328 0,47.071 38.277,85.331 85.328,85.331 47.051,0 85.332,-38.26 85.332,-85.331 0,-47.07 -38.281,-85.328 -85.332,-85.328 z m 0,238.929 c -84.699,0 -153.598,-68.9 -153.598,-153.601 0,-84.699 68.899,-153.598 153.598,-153.598 84.699,0 153.601,68.899 153.601,153.598 0,84.701 -68.902,153.601 -153.601,153.601" /><path
         id="path36"
         style="fill: #ffffff;fill-opacity:1;fill-rule:nonzero;stroke:none"
         d="m 290.129,204.789 c -47.051,0 -85.328,38.262 -85.328,85.332 0,47.07 38.277,85.328 85.328,85.328 47.051,0 85.332,-38.258 85.332,-85.328 0,-47.07 -38.281,-85.332 -85.332,-85.332 z m 0,238.93 c -84.699,0 -153.598,-68.899 -153.598,-153.598 0,-84.699 68.899,-153.601 153.598,-153.601 84.699,0 153.601,68.902 153.601,153.601 0,84.699 -68.902,153.598 -153.601,153.598" /></g></g></svg>
