<?xml version="1.0" encoding="UTF-8" standalone="no"?>
<svg
   xmlns:dc="http://purl.org/dc/elements/1.1/"
   xmlns:cc="http://creativecommons.org/ns#"
   xmlns:rdf="http://www.w3.org/1999/02/22-rdf-syntax-ns#"
   xmlns:svg="http://www.w3.org/2000/svg"
   xmlns="http://www.w3.org/2000/svg"
   viewBox="0 0 512 288"
   height="288"
   width="512"
   xml:space="preserve"
   id="svg2"
   version="1.1"><metadata
     id="metadata8"><rdf:RDF><cc:Work
         rdf:about=""><dc:format>image/svg+xml</dc:format><dc:type
           rdf:resource="http://purl.org/dc/dcmitype/StillImage" /></cc:Work></rdf:RDF></metadata><defs
     id="defs6" /><g
     transform="matrix(1.3333333,0,0,-1.3333333,0,288)"
     id="g10"><g
       transform="scale(0.1)"
       id="g12"><path
         id="path14"
         style="fill:#e54d00; fill-opacity:1;fill-rule:nonzero;stroke:none"
         d="M 693.09,559.73 C 603.16,559.73 530,486.559 530,396.641 530,306.762 603.16,233.59 693.09,233.59 c 89.879,0 163.039,73.172 163.039,163.051 0,89.918 -73.16,163.089 -163.039,163.089 z m 0,-213.25 c -27.66,0 -50.199,22.5 -50.199,50.2 0,27.66 22.5,50.16 50.199,50.16 27.648,0 50.148,-22.5 50.148,-50.16 0,-27.7 -22.5,-50.2 -50.148,-50.2 z" /><path
         id="path16"
         style="fill:#e54d00; fill-opacity:1;fill-rule:nonzero;stroke:none"
         d="m 3166.33,559.73 c -89.88,0 -163.05,-73.171 -163.05,-163.089 0,-89.879 73.17,-163.051 163.05,-163.051 89.92,0 163.08,73.172 163.08,163.051 0,89.918 -73.16,163.089 -163.08,163.089 z m 0,-213.25 c -27.66,0 -50.16,22.5 -50.16,50.2 0,27.66 22.5,50.16 50.16,50.16 27.69,0 50.19,-22.5 50.19,-50.16 0,-27.7 -22.54,-50.2 -50.19,-50.2 z" /><path
         id="path18"
         style="fill:#e54d00; fill-opacity:1;fill-rule:nonzero;stroke:none"
         d="m 3695.55,877.621 v 511.599 c 0,64.06 -17.15,127.11 -49.57,182.34 l -65.43,111.56 c -15.78,26.88 -50.39,35.9 -77.27,20.08 -26.87,-15.74 -35.9,-50.35 -20.12,-77.22 l 65.47,-111.57 c 22.27,-37.93 34.03,-81.21 34.03,-125.19 v -8.67 h -113.32 c -65.32,0 -118.44,-53.13 -118.44,-118.4 V 939.961 c 0,-65.27 53.12,-118.402 118.44,-118.402 h 113.78 c 3.48,-27.848 27.19,-49.411 55.98,-49.411 h 2.62 c 47.11,0 85.39,-38.316 85.39,-85.386 v -91.453 h -226.68 c -67.93,113.793 -192.23,190.16 -334.1,190.16 -141.84,0 -266.17,-76.367 -334.06,-190.16 h -567.19 l 70.51,157.273 c 7.77,17.297 11.71,35.699 11.71,54.648 v 460.43 h 377.27 c 31.17,0 56.45,25.27 56.45,56.44 0,31.17 -25.28,56.45 -56.45,56.45 H 2460.2 v 432.93 h 619.29 l -0.47,-432.93 h -113.9 c -31.17,0 -56.45,-25.28 -56.45,-56.45 0,-31.17 25.28,-56.44 56.45,-56.44 h 113.9 c 62.54,0 113.4,50.89 113.4,113.39 v 452.19 c 0,51.25 -41.68,93.01 -93.47,93.13 H 1785.51 c -22.81,0 -44.85,-8.25 -62.03,-23.21 l -616.6,-536.44 c -17.78,-15.47 -24.07,-40.31 -15.83,-62.38 8.25,-22.04 29.34,-36.68 52.86,-36.68 H 2234.38 V 807.23 c 0,-2.929 -0.59,-5.781 -1.8,-8.48 l -91.21,-203.441 h -643.44 c -31.17,0 -56.45,-25.27 -56.45,-56.438 0,-31.172 25.28,-56.449 56.45,-56.449 h 1289.22 c -6.25,-27.621 -9.65,-56.293 -9.65,-85.781 0,-9.45 0.47,-18.789 1.13,-28.09 H 1080.78 c 0.67,9.301 1.13,18.64 1.13,28.09 0,29.488 -3.43,58.16 -9.64,85.781 h 185.15 c 31.17,0 56.45,25.277 56.45,56.449 0,31.168 -25.28,56.438 -56.45,56.438 h -230.27 c -40.041,67.07 -99.728,121.14 -171.021,154.222 v 548.629 l 810.001,704.77 c 26.96,23.44 61.45,36.37 97.15,36.37 h 1335.67 c 87.38,0 169.14,-46.84 213.39,-122.19 l 48.95,-83.44 c 15.74,-26.87 50.35,-35.86 77.23,-20.12 26.91,15.79 35.89,50.4 20.11,77.27 l -48.94,83.4 c -64.42,109.76 -183.48,177.97 -310.74,177.97 H 1763.28 c -62.93,0 -123.75,-22.78 -171.25,-64.07 L 778.551,1380.35 H 396.52 C 177.891,1380.31 0,1202.46 0,983.828 V 377.301 C 0,310.23 54.5703,255.66 121.641,255.66 H 330.82 C 387.379,110.781 528.398,7.80859 693.09,7.80859 c 164.64,0 305.66,102.97241 362.26,247.85141 h 1748.71 c 56.6,-144.879 197.62,-247.85141 362.27,-247.85141 164.69,0 305.7,102.97241 362.3,247.85141 h 189.38 c 67.26,0 121.99,54.731 121.99,122.039 v 309.063 c 0,90.699 -61.21,167.34 -144.45,190.859 z M 3469.3,1267.7 h 113.36 v -110.2 h -118.87 v 104.65 c 0,3.05 2.46,5.55 5.51,5.55 z m -5.51,-327.739 v 104.649 h 118.87 V 934.449 H 3469.3 c -3.05,0 -5.51,2.461 -5.51,5.512 z M 2234.38,1813.52 h 112.922 V 1380.59 H 2234.38 Z m -442,0 h 329.1 V 1380.59 H 1294.8 Z M 743.238,1267.46 V 782.148 c -16.437,2.114 -33.16,3.321 -50.187,3.321 -141.961,0 -266.371,-76.52 -334.223,-190.43 -1.879,0.16 -3.75,0.27 -5.668,0.27 H 112.891 V 880.66 H 266.41 c 93.899,0 170.27,76.41 170.27,170.32 0,93.9 -76.371,170.27 -170.27,170.27 h -24.73 c 44.57,29.18 97.73,46.17 154.84,46.17 H 743.238 Z M 266.41,1108.4 c 31.641,0 57.379,-25.78 57.379,-57.42 0,-31.64 -25.738,-57.39 -57.379,-57.39 H 113.121 c 1.41,41.06 11.527,79.93 28.68,114.81 z M 121.641,368.551 c -4.801,0 -8.75,3.949 -8.75,8.75 v 105.121 h 200.98 c -6.211,-27.621 -9.652,-56.293 -9.652,-85.781 0,-9.45 0.472,-18.789 1.133,-28.09 z M 693.09,120.699 c -152.149,0 -275.981,123.789 -275.981,275.981 0,152.152 123.789,275.941 275.981,275.941 152.14,0 275.93,-123.789 275.93,-275.941 0,-152.192 -123.79,-275.981 -275.93,-275.981 z m 2473.24,0 c -152.15,0 -275.94,123.789 -275.94,275.981 0,152.152 123.79,275.941 275.94,275.941 152.19,0 275.97,-123.789 275.97,-275.941 0,-152.192 -123.78,-275.981 -275.97,-275.981 z m 551.64,247.852 h -163.91 c 0.67,9.301 1.1,18.64 1.1,28.09 0,29.488 -3.4,58.16 -9.65,85.781 h 181.6 V 377.699 c 0,-5.039 -4.1,-9.148 -9.14,-9.148 z" /><path
         id="path20"
         style="fill:#e54d00; fill-opacity:1;fill-rule:nonzero;stroke:none"
         d="m 2088.83,1066.45 c 31.17,0 56.44,25.27 56.44,56.44 0,31.17 -25.27,56.45 -56.44,56.45 h -108.48 c -31.17,0 -56.44,-25.28 -56.44,-56.45 0,-31.17 25.27,-56.44 56.44,-56.44 z" /></g></g></svg>
