<?xml version="1.0" encoding="UTF-8" standalone="no"?>
<svg
   xmlns:dc="http://purl.org/dc/elements/1.1/"
   xmlns:cc="http://creativecommons.org/ns#"
   xmlns:rdf="http://www.w3.org/1999/02/22-rdf-syntax-ns#"
   xmlns:svg="http://www.w3.org/2000/svg"
   xmlns="http://www.w3.org/2000/svg"
   viewBox="0 0 481.33334 481.33334"
   height="481.33334"
   width="481.33334"
   xml:space="preserve"
   id="svg2"
   style="cursor: pointer;"
   version="1.1"><metadata
     id="metadata8"><rdf:RDF><cc:Work
         rdf:about=""><dc:format>image/svg+xml</dc:format><dc:type
           rdf:resource="http://purl.org/dc/dcmitype/StillImage" /></cc:Work></rdf:RDF></metadata><defs
     id="defs6" /><g
     transform="matrix(1.3333333,0,0,-1.3333333,0,481.33333)"
     id="g10"><g
       transform="scale(0.1)"
       id="g12"><path
         id="path14"
         style="fill:#e54d00;fill-opacity:1;fill-rule:nonzero;stroke:none"
         d="m 3249.45,1663.79 -296.72,42.23 -182.73,74.33 v 139.96 c 134.53,100.31 220.59,252.7 236.99,419.69 h 3.01 c 119.73,0.08 221.09,88.4 237.54,207.03 16.48,118.59 -56.99,231.17 -172.19,263.87 12.15,46.01 10.27,94.61 -5.35,139.57 V 3180 c 0,231.95 -188.05,420 -420,420 h -480 c -231.95,0 -420,-188.05 -420,-420 v -229.53 c -15.62,-44.96 -17.5,-93.56 -5.35,-139.57 -115.2,-32.7 -188.67,-145.28 -172.19,-263.87 C 1588.91,2428.4 1690.27,2340.08 1810,2340 h 3.01 c 16.4,-167.03 102.46,-319.38 236.99,-419.73 v -142.5 l -186.02,-89.22 -322.34,-68.71 c -176.8,-39.22 -309.06,-186.48 -329.18,-366.44 -37.58,34.06 -78.63,64.06 -122.46,89.57 v 913.98 c 294.49,169.46 429.96,522.07 324.61,845.12 -6.45,19.77 -22.73,34.81 -42.93,39.65 -20.23,4.88 -41.56,-1.06 -56.33,-15.7 l -387.299,-384.3 c -16.371,-16.06 -38.36,-25 -61.25,-24.92 -22.391,0.19 -43.789,9.18 -59.571,25.04 l -215.39,215.43 c -15.86,15.78 -24.852,37.14 -25.039,59.53 -0.121,22.73 8.75,44.65 24.609,60.93 l 384.57,387.62 c 14.68,14.77 20.622,36.1 15.739,56.33 -4.879,20.23 -19.879,36.48 -39.688,42.97 C 601.68,3678.59 221.879,3509.53 72.0703,3172.93 -77.7305,2836.37 50.8594,2441.02 370,2256.99 V 1343.05 C 75.5117,1173.59 -59.9609,820.98 45.3906,497.93 c 6.4492,-19.77 22.7305,-34.809 42.9297,-39.649 20.2307,-4.883 41.5587,1.059 56.3277,15.699 l 387.301,384.301 c 16.371,16.059 38.36,25 61.25,24.918 22.391,-0.187 43.789,-9.179 59.571,-25.039 L 868.16,642.77 c 15.86,-15.782 24.852,-37.18 25.039,-59.571 0.121,-22.769 -8.75,-44.648 -24.609,-60.929 L 483.98,134.648 C 469.34,119.879 463.398,98.5508 468.281,78.3203 473.16,58.0898 488.199,41.8008 508.012,35.3516 756.52,-45.8203 1039.45,21.0508 1226.84,201.172 1268.98,80.8203 1382.5,0.199219 1510,0 h 180 c 4.18,0 660,137.93 660,137.93 V 0 h 120 V 137.621 L 3117.66,1.28906 C 3121.72,0.429688 3125.86,0 3130,0 h 180 c 165.62,0.199219 299.8,134.379 300,300 v 948.01 c -1.21,208.51 -154.3,385.04 -360.55,415.78 z M 2410,1018.59 2323.59,1260 h 172.5 z m -240,831.76 c 152.97,-67.15 327.03,-67.15 480,0 V 1749.1 L 2534.88,1380 H 2285.16 L 2170,1749.14 Z m 465.74,-550.04 112.11,359.49 126.02,-51.25 -35.82,-429.76 -201.96,115.43 1.92,5.27 z m 20.86,1479.42 c -163.28,27.26 -329.92,27.26 -493.2,0 l -164.53,-27.43 c -36.64,-6.05 -74.07,4.89 -101.64,29.73 -27.58,24.85 -42.39,60.9 -40.16,97.97 h 1105.86 c 2.23,-37.07 -12.58,-73.12 -40.16,-97.97 -27.57,-24.84 -65,-35.78 -101.64,-29.73 z M 2590,3000 h -360 v 120 h 360 z m 540,-420 c -0.16,-66.21 -53.79,-119.84 -120,-120 v 239.26 c 0.23,0.23 0.51,0.47 0.74,0.66 65.94,-0.47 119.18,-53.98 119.26,-119.92 z m -1260,600 c 0,165.7 134.3,300 300,300 h 480 c 165.7,0 300,-134.3 300,-300 v -180 h -240 v 180 c 0,33.12 -26.88,60 -60,60 h -480 c -33.12,0 -60,-26.88 -60,-60 v -180 h -240 z m -144.77,-684.77 c -34.25,34.22 -44.61,85.67 -26.21,130.47 18.4,44.77 61.96,74.1 110.39,74.3 l 0.59,-0.62 V 2460 c -31.8,0.16 -62.23,12.81 -84.77,35.23 z M 1930,2400 v 235.39 c 29.18,-5.9 59.22,-6.37 88.59,-1.44 l 36.68,6.09 c -10.7,-30 -4.76,-63.44 15.67,-87.93 20.43,-24.45 52.26,-36.29 83.71,-31.09 31.44,5.15 57.81,26.6 69.33,56.32 11.49,29.73 6.41,63.32 -13.36,88.32 132.23,19.34 266.53,19.34 398.76,0 -19.81,-25 -24.93,-58.63 -13.4,-88.39 11.48,-29.77 37.85,-51.22 69.33,-56.41 31.49,-5.2 63.36,6.68 83.79,31.17 20.43,24.49 26.37,57.97 15.63,88.01 l 36.68,-6.09 c 25.78,-5.2 73.08,-1.72 88.59,1.4 V 2400 c 0,-265.08 -214.92,-480 -480,-480 -265.08,0 -480,214.92 -480,480 z m 143.36,-744.1 110.82,-355.28 -2.27,-0.82 2.04,-5.58 -201.96,-115.43 -34.72,416.56 z m -506.45,-153.36 263.01,56.01 40.28,-483.55 c 1.71,-20.43 13.71,-38.55 31.87,-48.09 8.75,-4.61 48.48,-4.25 57.7,0.98 L 2225.16,1179.57 2350,829.609 V 692.5 L 2004.53,719.059 1750,828.121 V 1080 H 1630 V 879.57 l -36.37,15.59 c -7.46,3.199 -15.51,4.84 -23.63,4.84 h -240 v 308.98 c 0.78,141.18 99.1,262.97 236.91,293.56 z M 804.449,124.379 c -53.121,-6.488 -106.871,-5.899 -159.84,1.75 l 309.493,311.922 c 38.007,38.75 59.258,90.898 59.098,145.148 0.04,54.262 -21.641,106.25 -60.149,144.422 l -215.43,215.43 c -38.172,38.508 -90.16,60.189 -144.422,60.149 -54.449,0.12 -106.719,-21.212 -145.5,-59.411 l -311.57,-309.18 c -36.6407,253.942 92.5,503.051 321.172,619.371 20.078,10.28 32.699,30.9 32.699,53.4 v 985.24 c 0,22.5 -12.621,43.12 -32.66,53.4 -212.809,108.98 -340.891,333.63 -326.25,572.3 17.351,282.38 242.93,521.99 524.461,557.3 53.121,6.49 106.871,5.86 159.84,-1.75 L 505.898,3161.95 c -38.007,-38.75 -59.257,-90.9 -59.097,-145.15 -0.039,-54.26 21.64,-106.25 60.148,-144.42 l 215.43,-215.43 c 38.172,-38.51 90.16,-60.19 144.422,-60.15 54.41,-0.12 106.679,21.21 145.469,59.41 l 311.6,309.18 c 36.64,-253.94 -92.5,-503.05 -321.17,-619.37 -20.079,-10.28 -32.7,-30.9 -32.7,-53.4 v -985.24 c 0,-22.5 12.621,-43.12 32.66,-53.4 81.4,-41.91 152.3,-101.71 207.34,-174.92 V 363.012 C 1112.81,231.719 966.449,145.59 804.449,124.379 Z M 1683.75,120 H 1510 c -99.38,0.121 -179.88,80.621 -180,180 v 60 h 215.16 L 1647.58,257.582 C 1658.83,246.332 1674.1,240 1690,240 h 293.75 l 134.49,-28.32 z M 3490,300 c -0.12,-99.379 -80.62,-179.879 -180,-180 H 3136.25 L 2002.34,358.711 c -4.06,0.859 -287.5,1.289 -287.5,1.289 L 1612.42,462.422 C 1601.17,473.672 1585.9,480 1570,480 h -240 v 300 h 227.7 c 0,0 421.13,-179.34 427.69,-179.84 L 3490,484.449 Z m 0,304.801 -539.53,41.488 L 3262.34,780 H 3490 Z M 3490,900 h -240 c -8.16,0 -60,-20.512 -60,-20.512 V 1080 H 3070 V 900 H 2590 V 780 h 367.89 L 2815.51,719.059 2470,692.379 v 137.23 l 124.84,349.961 265.39,-151.64 c 17.82,-10.2 39.57,-10.59 57.7,-1.02 18.16,9.54 30.16,27.7 31.87,48.13 l 42,504.22 240.54,-34.26 c 147.35,-21.95 256.72,-148.01 257.66,-296.99 z" /><path
         id="path16"
         style="fill:#e54d00;fill-opacity:1;fill-rule:nonzero;stroke:none"
         d="m 2110,840 h 120 v 120 h -120 z" /><path
         id="path18"
         style="fill:#e54d00;fill-opacity:1;fill-rule:nonzero;stroke:none"
         d="m 2607.38,2256.76 -34.76,114.84 c -69.92,-21.09 -142.58,-31.72 -215.63,-31.6 H 2230 v -120 h 126.99 c 84.85,-0.12 169.18,12.27 250.39,36.76 z" /><path
         id="path20"
         style="fill:#e54d00;fill-opacity:1;fill-rule:nonzero;stroke:none"
         d="M 670,1260 H 790 V 2340 H 670 Z" /></g></g></svg>
