<?xml version="1.0" encoding="UTF-8" standalone="no"?>
<svg
   xmlns:dc="http://purl.org/dc/elements/1.1/"
   xmlns:cc="http://creativecommons.org/ns#"
   xmlns:rdf="http://www.w3.org/1999/02/22-rdf-syntax-ns#"
   xmlns:svg="http://www.w3.org/2000/svg"
   xmlns="http://www.w3.org/2000/svg"
   viewBox="0 0 464 512"
   height="512"
   width="464"
   xml:space="preserve"
   id="svg2"
   style="cursor: pointer;"
   version="1.1"><metadata
     id="metadata8"><rdf:RDF><cc:Work
         rdf:about=""><dc:format>image/svg+xml</dc:format><dc:type
           rdf:resource="http://purl.org/dc/dcmitype/StillImage" /></cc:Work></rdf:RDF></metadata><defs
     id="defs6" /><g
     transform="matrix(1.3333333,0,0,-1.3333333,0,512)"
     id="g10"><g
       transform="scale(0.1)"
       id="g12"><path
         id="path14"
         style="fill:#e54d00;fill-opacity:1;fill-rule:nonzero;stroke:none"
         d="m 1139.73,2121.33 h 1274.61 c 31.05,0 56.21,25.15 56.25,56.21 0.07,82.73 3.51,166.48 10.11,248.87 1.45,13.39 98.05,809.8 108.64,1281.95 0.23,10.74 8.78,19.14 19.49,19.14 h 106.09 c 7.19,0 11.84,-3.67 13.99,-5.86 2.14,-2.19 5.7,-6.91 5.54,-14.02 -2.03,-95.98 -7.73,-212.19 -16.99,-345.39 -2.15,-31.02 21.25,-57.85 52.23,-60.04 31.01,-2.11 57.85,21.25 60,52.22 9.37,135.04 15.15,253.05 17.22,350.82 0.79,35.79 -12.57,69.54 -37.61,95.12 -25.04,25.55 -58.56,39.65 -94.38,39.65 h -106.09 c -68.52,0 -125.74,-53.71 -131.37,-121.21 h -114.14 c -187.42,0 -344.8,-146.33 -358.36,-333.13 -24.26,-336.4 -66.01,-716.28 -86.87,-887.73 -6.61,-69.06 -12,-169.61 -13.64,-264.1 h -764.72 c -31.06,0 -56.25,-25.16 -56.25,-56.25 0,-31.06 25.19,-56.25 56.25,-56.25 z m 890.11,363.79 c 21.02,172.85 62.93,554.37 87.35,892.42 9.29,128.28 117.42,228.75 246.13,228.75 h 110.08 c -20,-468.09 -103.13,-1155.82 -104.06,-1163.24 -5.16,-57.23 -9.26,-136.84 -10.71,-209.22 h -341.68 c 1.68,91.48 6.06,177.46 12.89,251.29 z" /><path
         id="path16"
         style="fill:#e54d00;fill-opacity:1;fill-rule:nonzero;stroke:none"
         d="m 3431.88,668.789 -56.22,51.133 c -49.92,45.43 -126.01,45.699 -176.99,0.629 -30.39,-26.922 -65.04,-52.699 -103.47,-77.313 l -208.36,597.782 c -130.63,374.84 -180.98,765.54 -149.61,1161.17 4.8,39.76 41.83,349.41 71.6,689.06 2.73,30.94 -20.16,58.24 -51.13,60.94 -31.02,2.77 -58.21,-20.16 -60.94,-51.14 -29.92,-341.36 -67.19,-652.18 -71.37,-686.48 -33.28,-406.84 19.34,-822.34 155.23,-1210.59 l 215.2,-617.421 c -41.33,-21.09 -85.7,-41.008 -132.77,-59.758 l -219.42,629.489 c -86.99,249.33 -141.75,507.85 -162.89,768.24 -2.38,29.22 -26.76,51.72 -56.05,51.72 H 649.059 c -10.778,0 -19.528,8.75 -19.528,19.49 v 106.06 c 0,10.78 8.789,19.57 19.528,19.57 H 876.52 c 31.062,0 56.25,25.19 56.25,56.25 0,31.05 -25.188,56.25 -56.25,56.25 H 649.059 c -72.809,0 -132.028,-59.26 -132.028,-132.07 v -106.06 c 0,-72.77 59.258,-131.99 132.028,-131.99 h 93.711 c -2.258,-43.28 -6.95,-86.76 -13.668,-130.23 -193.122,-5.79 -348.481,-164.54 -348.481,-358.99 v -68.16 c 0,-31.1 25.199,-56.25 56.258,-56.25 H 596.52 c -1.008,-3.05 -2.071,-6.1 -3.122,-9.1 L 384.961,643.121 c -38.481,24.649 -73.199,50.469 -103.633,77.391 -50.976,45.109 -127.066,44.84 -176.988,-0.59 L 48.1211,668.789 C 20.6211,643.75 4.92188,608.051 5.03906,570.82 5.19922,533.359 21.3281,497.461 49.3789,472.34 374.609,181.02 1022.42,0 1740,0 c 717.58,0 1365.39,181.02 1690.62,472.34 28.01,25.121 44.18,61.019 44.34,98.48 0.12,37.231 -15.58,72.93 -43.08,97.969 z m -968.72,693.831 h -1440.7 c 23.16,78.04 46.02,165.31 63.16,258.67 h 732.66 c 57.23,0 112.46,23.94 151.6,65.7 39.14,41.8 59.46,98.52 55.74,155.67 -0.46,6.91 -0.85,14.06 -1.28,21.09 h 348.9 c 16.45,-168.63 46.64,-336.29 89.92,-501.13 z m -549.8,472.73 c 1.76,-26.64 -7.34,-51.99 -25.59,-71.44 -18.2,-19.42 -42.85,-30.12 -69.49,-30.12 h -715.47 c 5.12,42.46 8.67,85.9 10.39,129.96 h 798.44 c 0.59,-9.53 1.13,-19.1 1.72,-28.4 z M 493.121,1362.62 v 11.91 c 0,124.96 93.438,228.48 214.149,244.49 -19.461,-86.17 -44.969,-172.03 -72.622,-256.4 z m 206.488,-158.64 c 73.442,210.82 145.27,434.46 155.86,659.77 h 145.271 c -8.592,-203.32 -61.478,-393.83 -108.08,-540.35 -5.43,-17.11 -2.39,-35.78 8.199,-50.24 10.621,-14.49 27.461,-23.04 45.43,-23.04 H 2494.88 c 13.24,-43.87 27.39,-87.5 42.5,-130.86 l 5,-14.26 h -248.43 c -31.1,0 -56.25,-25.2 -56.25,-56.25 0,-31.09 25.15,-56.25 56.25,-56.25 h 287.61 L 2757.3,488.281 C 2475.23,394.262 2117.15,339.801 1740,339.801 c -377.07,0 -735.08,54.418 -1017.148,148.437 L 898.629,992.5 H 2030.94 c 31.05,0 56.25,25.16 56.25,56.25 0,31.05 -25.2,56.25 -56.25,56.25 H 858.672 c -23.902,0 -45.231,-15.16 -53.121,-37.73 L 617.148,526.719 C 570.039,545.469 525.66,565.391 484.34,586.48 Z M 3355.59,556.172 C 3050.08,282.5 2431.02,112.5 1740,112.5 c -691.02,0 -1310.078,170 -1615.59,443.672 -5.93,5.308 -6.832,11.758 -6.871,15.078 0,3.91 1.051,9.57 6.289,14.34 l 56.211,51.09 c 3.59,3.32 8.199,4.922 12.852,4.922 4.879,0 9.839,-1.762 13.828,-5.313 C 487.379,387.852 1089.22,227.301 1740,227.301 c 650.78,0 1252.62,160.551 1533.28,408.988 7.81,6.949 19.3,7.109 26.68,0.391 l 56.21,-51.09 c 5.24,-4.77 6.29,-10.43 6.29,-14.301 -0.04,-3.359 -0.94,-9.809 -6.87,-15.117 z" /></g></g></svg>
