<?xml version="1.0" encoding="UTF-8" standalone="no"?>
<svg
   xmlns:dc="http://purl.org/dc/elements/1.1/"
   xmlns:cc="http://creativecommons.org/ns#"
   xmlns:rdf="http://www.w3.org/1999/02/22-rdf-syntax-ns#"
   xmlns:svg="http://www.w3.org/2000/svg"
   xmlns="http://www.w3.org/2000/svg"
   viewBox="0 0 509.33334 512"
   height="512"
   width="509.33334"
   xml:space="preserve"
   id="svg2"
   style="cursor: pointer;"
   version="1.1"><metadata
     id="metadata8"><rdf:RDF><cc:Work
         rdf:about=""><dc:format>image/svg+xml</dc:format><dc:type
           rdf:resource="http://purl.org/dc/dcmitype/StillImage" /></cc:Work></rdf:RDF></metadata><defs
     id="defs6" /><g
     transform="matrix(1.3333333,0,0,-1.3333333,0,512)"
     id="g10"><g
       transform="scale(0.1)"
       id="g12"><path
         id="path14"
         style="fill:#e54d00;fill-opacity:1;fill-rule:nonzero;stroke:none"
         d="m 1978.2,3314.02 c 0,-37.65 -30.54,-68.2 -68.2,-68.2 -37.66,0 -68.2,30.55 -68.2,68.2 0,37.66 30.54,68.21 68.2,68.21 37.66,0 68.2,-30.55 68.2,-68.21 z" /><path
         id="path16"
         style="fill:#e54d00;fill-opacity:1;fill-rule:nonzero;stroke:none"
         d="m 2312.62,3318.83 c 2.65,-37.58 -25.63,-70.2 -63.21,-72.89 -37.57,-2.66 -70.23,25.62 -72.89,63.24 -2.65,37.58 25.63,70.2 63.21,72.89 37.57,2.66 70.23,-25.62 72.89,-63.24 z" /><path
         id="path18"
         style="fill:#e54d00;fill-opacity:1;fill-rule:nonzero;stroke:none"
         d="m 1584.06,3381.41 c 37.46,-3.71 64.81,-37.11 61.1,-74.57 -3.75,-37.5 -37.15,-64.85 -74.61,-61.14 -37.46,3.75 -64.81,37.15 -61.1,74.61 3.75,37.46 37.15,64.85 74.61,61.1 z" /><path
         id="path20"
         style="fill:#e54d00;fill-opacity:1;fill-rule:nonzero;stroke:none"
         d="m 1978.2,2707.93 c 0,-37.66 -30.54,-68.2 -68.2,-68.2 -37.66,0 -68.2,30.54 -68.2,68.2 0,37.66 30.54,68.2 68.2,68.2 37.66,0 68.2,-30.54 68.2,-68.2 z" /><path
         id="path22"
         style="fill:#e54d00;fill-opacity:1;fill-rule:nonzero;stroke:none"
         d="m 2312.7,2712.42 c 2.65,-37.58 -25.63,-70.19 -63.21,-72.89 -37.58,-2.65 -70.23,25.63 -72.89,63.2 -2.69,37.62 25.63,70.24 63.2,72.93 37.58,2.66 70.2,-25.62 72.9,-63.24 z" /><path
         id="path24"
         style="fill:#e54d00;fill-opacity:1;fill-rule:nonzero;stroke:none"
         d="m 1583.98,2775.04 c 37.47,-3.71 64.81,-37.11 61.1,-74.61 -3.75,-37.46 -37.15,-64.81 -74.61,-61.09 -37.46,3.75 -64.81,37.14 -61.09,74.61 3.74,37.46 37.14,64.8 74.6,61.09 z" /><path
         id="path26"
         style="fill:#e54d00;fill-opacity:1;fill-rule:nonzero;stroke:none"
         d="m 2008.48,2980.66 c 0,-37.57 30.58,-68.16 68.2,-68.16 37.58,0 68.16,30.59 68.16,68.16 0,37.62 -30.58,68.21 -68.16,68.21 -37.62,0 -68.2,-30.59 -68.2,-68.21 z" /><path
         id="path28"
         style="fill:#e54d00;fill-opacity:1;fill-rule:nonzero;stroke:none"
         d="m 2341.84,2980.66 c 0,-37.57 30.58,-68.16 68.2,-68.16 37.58,0 68.16,30.59 68.16,68.16 0,37.62 -30.58,68.21 -68.16,68.21 -37.62,0 -68.2,-30.59 -68.2,-68.21 z" /><path
         id="path30"
         style="fill:#e54d00;fill-opacity:1;fill-rule:nonzero;stroke:none"
         d="m 1675.16,2980.66 c 0,-37.57 30.58,-68.16 68.16,-68.16 37.58,0 68.16,30.59 68.16,68.16 0,37.62 -30.58,68.21 -68.16,68.21 -37.58,0 -68.16,-30.59 -68.16,-68.21 z" /><path
         id="path32"
         style="fill:#e54d00;fill-opacity:1;fill-rule:nonzero;stroke:none"
         d="m 1341.8,2980.66 c 0,-37.57 30.58,-68.16 68.16,-68.16 37.62,0 68.2,30.59 68.2,68.16 0,37.62 -30.62,68.21 -68.2,68.21 -37.58,0 -68.16,-30.59 -68.16,-68.21 z" /><path
         id="path34"
         style="fill:#e54d00;fill-opacity:1;fill-rule:nonzero;stroke:none"
         d="m 338.52,1920 c 0,-97.85 79.601,-177.46 177.46,-177.46 97.848,0 177.461,79.61 177.461,177.46 0,97.85 -79.613,177.46 -177.461,177.46 -97.859,0 -177.46,-79.61 -177.46,-177.46 z m 242.421,0 c 0,-35.82 -29.14,-64.96 -64.961,-64.96 -35.82,0 -65,29.14 -65,64.96 0,35.82 29.18,64.96 65,64.96 35.821,0 64.961,-29.14 64.961,-64.96 z" /><path
         id="path36"
         style="fill:#e54d00;fill-opacity:1;fill-rule:nonzero;stroke:none"
         d="m 3304.02,1742.54 c 97.86,0 177.46,79.61 177.46,177.46 0,97.85 -79.6,177.46 -177.46,177.46 -97.85,0 -177.46,-79.61 -177.46,-177.46 0,-97.85 79.61,-177.46 177.46,-177.46 z m 0,242.42 c 35.82,0 64.96,-29.14 64.96,-64.96 0,-35.82 -29.14,-64.96 -64.96,-64.96 -35.82,0 -64.96,29.14 -64.96,64.96 0,35.82 29.14,64.96 64.96,64.96 z" /><path
         id="path38"
         style="fill:#e54d00;fill-opacity:1;fill-rule:nonzero;stroke:none"
         d="m 3304.02,2430.82 c -43.32,0 -85.35,-5.47 -125.54,-15.66 v 479.92 c 0,31.05 -25.2,56.25 -56.25,56.25 -31.06,0 -56.25,-25.2 -56.25,-56.25 V 2371.8 C 2903.91,2286.05 2793.2,2115.74 2793.2,1920 v -92.23 c -47.58,36.1 -106.83,57.58 -171.05,57.58 h -1424.3 c -64.22,0 -123.47,-21.48 -171.05,-57.58 V 1920 c 0,195.74 -110.71,366.02 -272.78,451.76 v 957.42 c 0,219.65 178.679,398.32 398.32,398.32 h 1515.32 c 219.64,0 398.32,-178.67 398.32,-398.32 v -170.12 c 0,-31.05 25.19,-56.25 56.25,-56.25 31.05,0 56.25,25.2 56.25,56.25 v 170.12 c 0,281.68 -229.14,510.82 -510.82,510.82 H 1152.34 c -281.68,0 -510.82,-229.14 -510.82,-510.82 v -914.02 c -40.192,10.19 -82.219,15.66 -125.54,15.66 -281.679,0 -510.81984,-229.14 -510.81984,-510.82 0,-222.19 141.21084,-415.43 348.51184,-484.38 v -250.93 c 0,-31.06 25.199,-56.25 56.25,-56.25 31.058,0 56.25,25.19 56.25,56.25 v 226.95 c 16.527,-1.6 33.168,-2.46 49.808,-2.46 71.008,0 139.758,14.3 204.329,42.54 28.48,12.42 41.492,45.58 29.031,74.06 -12.43,28.48 -45.59,41.49 -74.07,29.02 -50.27,-21.99 -103.86,-33.12 -159.29,-33.12 -30.98,0 -61.8,3.59 -91.601,10.62 -0.469,0.12 -0.899,0.32 -1.367,0.43 C 243.199,1575.7 117.66,1734.96 117.66,1920 c 0,219.65 178.668,398.32 398.32,398.32 219.641,0 398.321,-178.67 398.321,-398.32 V 370.121 H 712.93 c -136.051,0 -246.758,110.699 -246.758,246.758 v 303.82 c 0,31.063 -25.192,56.25 -56.25,56.25 -31.051,0 -56.25,-25.187 -56.25,-56.25 v -303.82 c 0,-198.09 161.168,-359.258 359.258,-359.258 h 72.582 V 185.039 C 785.512,83.0117 868.52,0 970.551,0 1072.58,0 1155.59,83.0117 1155.59,185.039 v 72.543 H 2664.41 V 185.039 C 2664.41,83.0117 2747.42,0 2849.45,0 c 102.03,0 185.04,83.0117 185.04,185.039 v 72.582 h 72.58 c 198.09,0 359.26,161.168 359.26,359.258 v 303.82 c 0,31.063 -25.2,56.25 -56.25,56.25 -31.1,0 -56.25,-25.187 -56.25,-56.25 v -303.82 c 0,-136.059 -110.71,-246.758 -246.76,-246.758 H 2905.7 V 1920 c 0,219.65 178.68,398.32 398.32,398.32 219.65,0 398.32,-178.67 398.32,-398.32 0,-185.04 -125.54,-344.3 -305.35,-387.27 -0.47,-0.11 -0.9,-0.31 -1.37,-0.43 -29.84,-7.03 -60.66,-10.62 -91.6,-10.62 -55.43,0 -109.02,11.13 -159.29,33.12 -28.48,12.43 -61.64,-0.54 -74.07,-29.02 -12.46,-28.48 0.55,-61.64 28.99,-74.06 64.61,-28.24 133.36,-42.54 204.37,-42.54 16.64,0 33.28,0.86 49.81,2.46 v -226.95 c 0,-31.06 25.15,-56.25 56.25,-56.25 31.05,0 56.25,25.19 56.25,56.25 v 250.93 c 207.3,68.95 348.51,262.15 348.51,484.38 0,281.68 -229.14,510.82 -510.82,510.82 z M 1026.8,611.172 H 2793.2 V 370.082 H 1026.8 Z m 0,707.108 H 2793.2 V 1077.19 H 1026.8 Z M 2793.2,723.629 H 1026.8 V 964.692 H 2793.2 Z M 1197.85,1772.85 h 1424.3 c 94.33,0 171.05,-76.76 171.05,-171.05 V 1430.74 H 1026.8 v 171.21 c 0.08,94.22 76.75,170.9 171.05,170.9 z M 1043.09,185.039 c 0,-40 -32.54,-72.539 -72.539,-72.539 -40,0 -72.539,32.539 -72.539,72.539 v 72.582 l 145.078,-0.039 z m 1878.9,72.582 v -72.582 c 0,-40 -32.54,-72.539 -72.54,-72.539 -40,0 -72.54,32.539 -72.54,72.539 v 72.543 z" /></g></g></svg>
