<?xml version="1.0" encoding="UTF-8" standalone="no"?>
<svg
   xmlns:dc="http://purl.org/dc/elements/1.1/"
   xmlns:cc="http://creativecommons.org/ns#"
   xmlns:rdf="http://www.w3.org/1999/02/22-rdf-syntax-ns#"
   xmlns:svg="http://www.w3.org/2000/svg"
   xmlns="http://www.w3.org/2000/svg"
   viewBox="0 0 512 485.33334"
   height="485.33334"
   width="512"
   xml:space="preserve"
   id="svg2"
   version="1.1"><metadata
     id="metadata8"><rdf:RDF><cc:Work
         rdf:about=""><dc:format>image/svg+xml</dc:format><dc:type
           rdf:resource="http://purl.org/dc/dcmitype/StillImage" /></cc:Work></rdf:RDF></metadata><defs
     id="defs6" /><g
     transform="matrix(1.3333333,0,0,-1.3333333,0,485.33333)"
     id="g10"><g
       transform="scale(0.1)"
       id="g12"><path
         id="path14"
         style="fill:#e54d00;fill-opacity:1;fill-rule:nonzero;stroke:none"
         d="m 3556.56,1871.95 c -114.65,209.5 -228.59,344.89 -269.65,390.71 v 309.22 l 532.54,437.26 c 12.66,10.43 20.2,25.86 20.55,42.27 0.35,16.4 -6.48,32.14 -18.71,43.08 l -402.93,361.17 c -23.13,20.71 -58.67,18.75 -79.41,-4.37 -20.75,-23.13 -18.79,-58.67 4.33,-79.41 l 354.1,-317.39 -410.43,-337.03 v 230.08 c 0,31.05 -25.19,56.25 -56.25,56.25 -31.09,0 -56.25,-25.2 -56.25,-56.25 l -0.04,-659.26 c -401.64,-65 -808.16,-65 -1209.8,0 v 659.26 c 0,31.05 -25.16,56.25 -56.25,56.25 -31.06,0 -56.25,-25.2 -56.25,-56.25 v -230.08 l -410.47,337.03 437.89,392.54 c 64.42,57.77 147.62,81.76 227.7,72.27 16.48,-70.82 54.33,-219.38 112.46,-367.35 95.54,-243.16 206.99,-388.55 331.21,-432.07 6.05,-2.11 12.34,-3.16 18.59,-3.16 6.29,0 12.58,1.05 18.6,3.16 124.25,43.52 235.7,188.91 331.25,432.07 58.04,147.7 95.86,295.86 112.42,366.84 49.57,5.94 100.74,-0.7 148.32,-21.06 28.59,-12.26 61.64,1.02 73.87,29.57 12.22,28.56 -1.02,61.61 -29.57,73.83 -144.5,61.88 -312.97,33.48 -429.26,-72.38 l -51.88,-47.23 c -99.06,-90.19 -248.36,-90.19 -347.38,0 l -51.88,47.23 c -153.28,139.57 -385.23,140.43 -539.53,2.03 l -486.72,-436.29 c -12.22,-10.94 -19.06,-26.68 -18.67,-43.08 0.35,-16.45 7.85,-31.84 20.51,-42.27 l 532.54,-437.26 V 2262.7 c -36.88,-41.06 -131.68,-153.13 -232.7,-324.97 -85.54,45.59 -176.01,90.59 -267.65,136.14 -80.08,39.84 -160.74,79.96 -238.17,120.66 75.67,94.77 134.03,202.07 159.61,327.81 39.1,192.19 -18.08,363.83 -156.87,470.98 -131.56,101.56 -312.779,124.22 -450.9,56.37 -74.059,-36.41 -198.282,-130.82 -198.282,-354.34 0,-141.52 89.883,-275.27 274.762,-408.94 57.82,-41.84 122.82,-82.35 192.039,-121.84 C 848.16,2080.16 749.691,2005.08 656.68,1934.14 456.449,1781.41 266.449,1636.37 261.52,1440.98 139.02,1411.6 44.4883,1309.41 28.0508,1180.74 -9.37891,887.809 -9.37891,590.699 28.0508,297.73 46.9492,150 168.789,37.1094 317.77,29.3008 616.48,13.75 917.301,5.94141 1218.12,5.94141 c 300.83,0 601.68,7.80859 900.4,23.35939 149.02,7.8086 270.86,120.7382 289.64,268.4292 11.22,87.579 18.99,175.551 23.52,263.68 45.74,-1.41 91.91,-2.109 137.81,-2.109 734.38,0 1213.48,171.789 1233.52,179.14 22.22,8.079 36.99,29.18 36.99,52.809 0,465.04 -154.14,844.37 -283.44,1080.7 z M 2320.12,3398.36 c 142.15,-129.53 356.64,-129.53 498.86,0 l 51.92,47.23 c 10.55,9.61 21.68,18.32 33.32,26.13 -19.53,-74.53 -49.49,-176.72 -89.57,-278.6 -93.75,-238.63 -182.31,-328 -245.12,-359.17 -62.81,31.17 -151.37,120.54 -245.12,359.17 -40.03,101.92 -70,204.15 -89.53,278.72 11.57,-7.82 22.74,-16.57 33.36,-26.22 z M 579.691,2695.39 c 0,122.23 46.789,209.84 135.348,253.36 37.07,18.16 79.371,26.99 122.93,26.99 72.812,0 149.019,-24.65 209.651,-71.44 60.86,-46.96 156.76,-156.14 115.39,-359.5 -22.7,-111.48 -78.17,-208.47 -150.55,-295.42 -243.12,136.24 -432.769,280.89 -432.769,446.01 z M 323.629,1336.8 c 100.281,5.19 200.59,9.57 298.133,12.93 31.047,1.09 55.347,27.11 54.289,58.16 -1.09,31.06 -26.949,55.23 -58.16,54.26 -79.571,-2.74 -160.981,-6.17 -242.661,-10.16 14.5,136.92 171.18,256.56 349.692,392.7 104.879,80 216.207,164.92 311.918,263.28 86.21,-45.94 176.21,-90.7 264.84,-134.81 88.75,-44.1 178.2,-88.59 263.01,-133.86 -55.71,-105.9 -110.51,-229.1 -155.86,-367.93 -189.26,2.11 -378.17,1.33 -565.67,-2.82 -31.09,-0.66 -55.699,-26.4 -55,-57.46 0.668,-31.09 26.25,-55.93 57.461,-55 419.339,9.18 845.629,2.7 1267.079,-19.29 94.6,-4.92 171.95,-76.53 183.9,-170.28 7.89,-61.72 13.99,-123.67 18.44,-185.7 -4.57,-62.269 -10.74,-124.058 -18.44,-183.832 -11.91,-93.707 -89.3,-165.269 -183.98,-170.187 -127.39,-6.641 -255.35,-11.84 -381.49,-15.629 2.7,79.449 0.94,159.219 -5.43,238.207 -8.59,106.832 -95.23,191.791 -201.56,197.611 -182.03,9.96 -366.6,9.96 -548.589,0 -106.289,-5.82 -192.973,-90.779 -201.571,-197.611 -6.441,-79.578 -8.16,-159.969 -5.351,-240 -148.16,3.941 -297.5,9.723 -445,17.422 -94.68,4.918 -172.027,76.48 -183.981,170.187 -7.539,59.102 -13.707,120.711 -18.437,183.172 4.449,62.26 10.551,124.41 18.437,186.36 11.993,93.75 89.372,165.36 183.981,170.28 z m 1340.081,447.93 c 182.23,-104.3 329.45,-213.36 378.95,-332 -171.49,8.21 -343.64,13.87 -515.75,16.96 40.59,117.46 88.29,223.01 136.8,315.04 z M 1613.59,524.102 c -4.14,-51.012 -45.23,-91.563 -95.58,-94.301 -0.04,0 -0.04,0 -0.04,0 -177.93,-9.719 -358.32,-9.719 -536.29,0 -50.352,2.738 -91.45,43.289 -95.59,94.301 -8.43,104.918 -8.43,211.328 0,316.25 4.14,50.98 45.238,91.527 95.59,94.296 88.98,4.84 178.55,7.301 268.16,7.301 89.57,0 179.18,-2.461 268.17,-7.301 50.35,-2.769 91.44,-43.316 95.58,-94.296 8.44,-104.922 8.44,-211.332 0,-316.25 z M 2112.7,141.68 c -593.6,-30.942 -1195.47,-30.942 -1789.028,0 -94.613,4.961 -172.031,76.601 -184.024,170.351 -12.378,97.149 -20.429,194.77 -24.339,292.539 52.39,-52.5 123.64,-86.019 202.461,-90.121 C 469.73,506.48 623.711,500.59 776.289,496.602 792.77,398.59 875.43,322.93 975.551,317.461 1066.56,312.461 1158.2,310 1249.84,310 c 91.64,0 183.28,2.461 274.3,7.461 100.7,5.508 183.75,82.07 199.53,180.937 130.47,3.832 262.93,9.184 394.77,16.051 78.9,4.102 150.15,37.621 202.58,90.16 -3.91,-97.769 -12,-195.429 -24.42,-292.621 -11.95,-93.707 -89.3,-165.347 -183.9,-170.308 z m 1430.19,639.769 c -11.6,169.102 -32.97,337.571 -63.79,501.791 -5.74,30.55 -35.12,50.63 -65.66,44.92 -30.55,-5.74 -50.67,-35.15 -44.92,-65.66 31.05,-165.39 52.18,-335.309 63.16,-505.699 -43.32,-8.871 -92.42,-18.09 -146.8,-27.071 -6.79,226.211 -30.93,451.48 -72.03,670.54 -5.7,30.51 -35.12,50.63 -65.66,44.93 -30.51,-5.75 -50.63,-35.16 -44.89,-65.67 40.82,-217.73 64.5,-441.76 70.55,-666.721 -167.73,-23.008 -372.54,-41.008 -603.32,-41.008 -44.65,0 -89.45,0.699 -133.91,2.031 3.17,169.289 -5.93,338.788 -27.42,506.908 -16.87,132.46 -116.52,236.8 -244.29,262.62 -41.29,171.87 -217.78,309.96 -445.28,439.76 89.92,152.19 174.03,254.85 210.78,296.96 212.47,-35.35 426.29,-53.09 640.12,-53.09 213.83,0 427.66,17.7 640.12,53.09 42.23,-48.28 146.72,-175.9 250.04,-365.55 118.4,-217.23 258.83,-561.6 267.38,-982.811 -36.6,-11.559 -99.34,-30.039 -184.18,-50.27 z" /><path
         id="path16"
         style="fill:#e54d00;fill-opacity:1;fill-rule:nonzero;stroke:none"
         d="m 1475.59,849.34 c -75.16,3.512 -151.1,5.269 -225.75,5.269 -74.64,0 -150.62,-1.757 -225.74,-5.269 -28.709,-1.371 -51.76,-24.11 -53.51,-52.781 -4.61,-75.86 -4.61,-152.809 0,-228.668 1.711,-28.672 24.801,-51.442 53.51,-52.77 75.08,-3.519 151.02,-5.281 225.74,-5.281 74.69,0 150.67,1.762 225.75,5.281 28.67,1.328 51.75,24.098 53.51,52.77 4.61,75.859 4.61,152.808 0,228.668 -1.76,28.671 -24.84,51.41 -53.51,52.781 z m -56.45,-223.949 c -113.05,-4.059 -225.55,-4.059 -338.59,0 -1.21,37.808 -1.21,75.82 0,113.668 113.12,4.062 225.47,4.062 338.59,0 1.21,-37.848 1.21,-75.86 0,-113.668 z" /></g></g></svg>
