<?xml version="1.0" encoding="UTF-8" standalone="no"?>
<svg
   xmlns:dc="http://purl.org/dc/elements/1.1/"
   xmlns:cc="http://creativecommons.org/ns#"
   xmlns:rdf="http://www.w3.org/1999/02/22-rdf-syntax-ns#"
   xmlns:svg="http://www.w3.org/2000/svg"
   xmlns="http://www.w3.org/2000/svg"
   viewBox="0 0 512 440"
   height="440"
   width="512"
   xml:space="preserve"
   id="svg2"
   version="1.1"><metadata
     id="metadata8"><rdf:RDF><cc:Work
         rdf:about=""><dc:format>image/svg+xml</dc:format><dc:type
           rdf:resource="http://purl.org/dc/dcmitype/StillImage" /></cc:Work></rdf:RDF></metadata><defs
     id="defs6" /><g
     transform="matrix(1.3333333,0,0,-1.3333333,0,440)"
     id="g10"><g
       transform="scale(0.1)"
       id="g12"><path
         id="path14"
         style="fill:#e54d00;fill-opacity:1;fill-rule:nonzero;stroke:none"
         d="m 3668.01,2951.64 c -131.21,191.91 -316.06,318.56 -507.03,347.46 -23.4,3.56 -47.11,-4.14 -63.95,-20.78 -258.05,-254.92 -511.56,-395.55 -816.8,-452.11 -31.52,31.64 -76.01,47.74 -132.26,47.74 -92.5,0 -173.17,-62.35 -227.97,-133.64 -54.8,71.29 -135.47,133.64 -227.93,133.64 -56.29,0 -100.74,-16.1 -132.3,-47.74 -305.2,56.56 -558.83,197.27 -816.801,452.11 -16.84,16.64 -40.547,24.34 -63.91,20.78 C 487.5,3270.12 302.379,3142.97 171.051,2950.27 45.9414,2766.64 -15.2305,2550.66 3.23828,2357.81 9.87891,2288.52 26.7188,2224.38 53.0508,2166.48 18.5195,2053.4 -26.3281,1870.66 82.7305,1723.44 173.012,1601.48 343.551,1536.99 602.5,1527.15 568.52,1378.28 527.969,1235.66 486.172,1108.91 c -0.121,-0.47 -0.313,-0.9 -0.434,-1.37 C 422.539,915.98 356.602,760.781 306.719,675.352 298.871,661.91 295.391,646.41 296.762,630.941 297.301,624.609 311.84,475.551 440.23,371.762 529.801,299.34 649.262,267.539 796.051,276.988 842.23,206.41 925.898,131.371 1036.99,92.3789 1128.44,60.3086 1271.56,42.2305 1448.63,126.641 1519.65,80.1602 1677.3,0.0390625 1920,0.0390625 c 242.73,0 400.35,80.1211375 471.41,126.6019375 177.03,-84.4105 320.15,-66.3324 411.64,-34.2621 111.09,38.9921 194.76,114.0311 240.9,184.6091 146.67,-9.449 266.28,22.352 355.85,94.774 128.36,103.789 142.9,252.847 143.48,259.179 1.37,15.469 -2.11,30.969 -9.96,44.411 -49.92,85.386 -115.82,240.628 -179.02,432.148 -0.16,0.51 -0.32,0.98 -0.51,1.48 -41.76,126.76 -82.31,269.34 -116.29,418.17 259.14,9.84 429.73,74.41 520,196.52 108.95,147.42 63.91,330.12 29.45,442.89 26.72,58.79 43.71,123.95 50.12,194.38 17.54,192.61 -44.06,407.93 -169.06,590.7 z M 2147.97,2723.95 c 19.22,0 25.78,-3.52 25.98,-3.52 h 0.03 c 9.61,-11.99 8.72,-71.91 8.17,-107.7 -0.24,-13.55 -0.43,-27.5 -0.43,-41.75 0,-14.26 0.19,-28.21 0.43,-41.76 0.55,-35.82 1.44,-95.74 -7.77,-107.31 -0.04,-0.03 -6.26,-3.9 -26.41,-3.9 -67.77,0 -143.32,112.73 -152.54,152.97 9.22,40.23 84.77,152.97 152.54,152.97 z m -303.4,-152.97 c -9.22,-40.24 -84.73,-152.97 -152.5,-152.97 -19.26,0 -25.82,3.51 -26.02,3.51 -9.64,12.03 -8.71,71.92 -8.16,107.7 0.2,13.55 0.39,27.5 0.39,41.76 0,14.25 -0.19,28.2 -0.39,41.75 -0.55,35.82 -1.48,95.75 7.73,107.31 0.04,0.04 6.26,3.91 26.41,3.91 67.81,0 143.32,-112.74 152.54,-152.97 z M 203.238,1812.7 c -40.617,54.88 -44.218,125.23 -34.648,192.22 10.711,-10.04 21.762,-19.8 33.441,-29.06 114.02,-90.35 268.199,-137.15 458.867,-139.77 -7.847,-53.36 -16.949,-106.75 -27.109,-159.8 -219.73,5.12 -367.969,51.91 -430.551,136.41 z M 3305.47,488.398 c -66.95,-54.136 -166.06,-73.558 -294.57,-57.699 -33.6,4.141 -65.78,-14.719 -78.6,-46.008 -16.25,-39.73 -79.18,-115.742 -178.94,-150.742 -101.45,-35.629 -213.24,-20.078 -332.34,46.133 -28.01,15.578 -62.39,12.027 -86.22,-9.461 -5.62,-4.922 -141.32,-120.582 -414.8,-120.582 -273.48,0 -409.14,115.66 -414.34,120.231 -23.82,21.449 -58.63,25.39 -86.68,9.812 -119.06,-66.211 -230.86,-81.723 -332.34,-46.133 -99.73,35 -162.66,111.012 -178.941,150.742 -12.777,31.329 -45,50.149 -78.597,46.008 -127.422,-15.699 -225.981,3.25 -292.973,56.41 -56.75,45.082 -78.359,106.129 -86.051,137.153 38.512,70.508 80,164.84 120.82,273.398 C 652.77,796.559 775.27,750.23 941.25,757.27 c 37.109,-53.168 100.59,-106.329 171.52,-140.981 76.8,-37.539 194.93,-71.168 338.17,-33.09 23.08,-21.437 57.11,-47.769 104.22,-72.34 11.05,-5.777 22.93,-8.519 34.61,-8.519 27.07,0 53.2,14.648 66.56,40.32 19.18,36.719 4.92,82.031 -31.8,101.172 -59.22,30.898 -85.66,63.316 -89.06,67.727 -18.95,29.73 -54.69,40.043 -87.77,27.82 -115.32,-42.578 -209.85,-17.231 -268.87,11.562 -75.12,36.641 -118.05,90.86 -123.32,107.34 -10.74,33.789 -43.6,55.43 -78.951,51.879 -228.36,-22.93 -301.789,68.039 -340.039,176.17 21.21,65.74 41.601,134.14 60.671,203.67 66.399,242.15 145.508,602.66 145.508,945 0,41.45 -33.597,75 -75,75 -41.41,0 -75,-33.55 -75,-75 0,-80.78 -4.73,-164.34 -13.211,-249.02 -316.398,-0.36 -502.929,135.62 -526.949,386.17 -14.961,156.25 38.32,340.78 142.5,493.71 99.371,145.82 232.93,245.47 370.981,278.09 261.21,-250.04 531.36,-397.86 842.26,-460.55 -1.13,-23.56 -0.78,-48.05 -0.39,-72.97 0.2,-12.81 0.39,-25.98 0.39,-39.45 0,-13.48 -0.19,-26.68 -0.39,-39.46 -1.25,-82.65 -2.46,-160.66 51.17,-215.15 31.6,-32.07 76.33,-48.32 132.97,-48.32 92.5,0 173.17,62.34 227.97,133.59 54.8,-71.25 135.47,-133.59 227.93,-133.59 56.68,0 101.41,16.25 133.01,48.32 53.63,54.49 52.42,132.5 51.17,215.15 -0.2,12.82 -0.43,25.98 -0.43,39.46 0,13.47 0.23,26.68 0.43,39.45 0.35,24.92 0.7,49.37 -0.43,72.93 310.94,62.69 581.02,210.47 842.3,460.59 137.62,-32.54 270.9,-131.76 370.2,-277 104.06,-152.18 157.7,-336.29 143.48,-492.42 -22.97,-251.87 -209.5,-389.1 -527.15,-388.67 -8.48,84.69 -13.24,168.32 -13.24,249.1 0,41.45 -33.56,75 -74.97,75 -41.44,0 -75,-33.55 -75,-75 0,-342.34 79.11,-702.85 145.51,-945 19.07,-69.53 39.46,-137.89 60.63,-203.67 -38.21,-108.13 -111.68,-199.099 -340,-176.169 -35.28,3.508 -68.17,-18.172 -78.95,-51.883 -5.27,-16.437 -48.24,-70.699 -123.32,-107.34 -59.02,-28.789 -153.55,-54.136 -268.87,-11.558 -33.12,12.219 -68.82,1.91 -87.77,-27.82 -3.44,-4.372 -29.88,-36.829 -89.1,-67.731 -36.72,-19.18 -50.98,-64.449 -31.84,-101.168 13.4,-25.672 39.53,-40.351 66.57,-40.351 11.68,0 23.55,2.73 34.64,8.511 47.11,24.61 81.14,50.938 104.26,72.379 143.21,-38.078 261.37,-4.449 338.17,33.09 70.93,34.648 134.41,87.809 171.52,140.98 10.94,-0.429 21.72,-0.671 32.27,-0.671 149.6,0 261.56,46.64 338.04,141.101 40.86,-108.64 82.39,-203.051 120.94,-273.558 -7.5,-30.661 -28.55,-90.473 -84.53,-135.704 z m 331.37,1324.452 c -62.46,-84.57 -210.82,-131.56 -430.63,-136.6 -10.12,53.05 -19.26,106.48 -27.11,159.84 193.28,2.66 349.1,50.75 463.52,143.48 9.92,8.05 19.37,16.52 28.59,25.2 10.27,-70.16 5.55,-137.93 -34.37,-191.92 z" /><path
         id="path16"
         style="fill:#e54d00;fill-opacity:1;fill-rule:nonzero;stroke:none"
         d="m 1920,582.031 h -0.04 c -41.44,0 -75,-33.59 -75,-75 0,-41.441 33.63,-75 75.04,-75 41.41,0 75,33.559 75,75 0,41.41 -33.59,75 -75,75 z" /></g></g></svg>
