<?xml version="1.0" encoding="UTF-8" standalone="no"?>
<svg
   xmlns:dc="http://purl.org/dc/elements/1.1/"
   xmlns:cc="http://creativecommons.org/ns#"
   xmlns:rdf="http://www.w3.org/1999/02/22-rdf-syntax-ns#"
   xmlns:svg="http://www.w3.org/2000/svg"
   xmlns="http://www.w3.org/2000/svg"
   viewBox="0 0 448 496"
   height="496"
   width="448"
   xml:space="preserve"
   id="svg2"
   style="cursor: pointer;"
   version="1.1"><metadata
     id="metadata8"><rdf:RDF><cc:Work
         rdf:about=""><dc:format>image/svg+xml</dc:format><dc:type
           rdf:resource="http://purl.org/dc/dcmitype/StillImage" /></cc:Work></rdf:RDF></metadata><defs
     id="defs6" /><g
     transform="matrix(1.3333333,0,0,-1.3333333,0,496)"
     id="g10"><g
       transform="scale(0.1)"
       id="g12"><path
         id="path14"
         style="fill:#e54d00;fill-opacity:1;fill-rule:nonzero;stroke:none"
         d="m 3215.27,2468.75 c -113.16,181.02 -286.21,320.23 -487.18,391.99 l -291.72,104.22 c -13.17,74.92 -31.21,149.02 -55.39,221.68 L 2340,3309.77 v 270.85 l -37.7,15.12 c -12.69,5.04 -314.25,124.26 -622.3,124.26 -308.05,0 -609.61,-119.22 -622.3,-124.26 l -37.7,-15.12 v -270.85 l -41.051,-123.05 c -22.308,-66.95 -38.91,-135.31 -51.84,-204.26 L 622.73,2865.43 C 427.301,2790.23 258.59,2651.09 147.66,2473.55 51.0508,2318.87 0,2140.86 0,1958.59 V 540 C 0,461.879 50.3516,395.898 120,371.051 V 300 c 0,-99.262 80.738,-180 180,-180 H 480 V 0 h 2400 v 120 h 180 c 99.26,0 180,80.738 180,180 v 71.051 c 69.65,24.847 120,90.828 120,168.949 v 1424.1 c 0,178.67 -50.04,353.17 -144.73,504.65 z m -1349.53,199.49 -184.76,-628.32 c -0.39,0 -0.67,0.08 -0.98,0.08 -0.31,0 -0.59,-0.08 -0.98,-0.08 l -184.76,628.32 -82.66,103.32 c -104.84,131.17 -184.96,278.4 -238.05,437.74 l -18.12,54.1 c 96.99,32.89 312.42,96.6 524.57,96.6 212.15,0 427.58,-63.71 524.57,-96.6 l -18.05,-54.18 c -53.08,-159.3 -133.2,-306.52 -238.08,-437.7 z m -783.51,444.18 c 56.87,-150.04 135.11,-290.15 235.74,-415.86 l 41.21,-51.52 c -143.63,15.66 -278.09,67.15 -338.63,93.32 3.4,127.07 24.65,252.38 61.68,374.06 z m 330.31,-591.64 151.68,-515.62 c -38.05,-24.69 -67.77,-60.98 -84.02,-105.12 l -185.98,632.3 c 38.44,-6.17 78.16,-10.19 118.32,-11.56 z M 1740,600 h -120 v 120 h 120 z m 0,240 h -120 v 120 h 120 z m 120,-720 h -360 v 120 h 360 z m -240,360 h 120 V 360 h -120 z m 120,600 h -120 v 123.44 c 11.17,-1.41 22.15,-3.44 33.71,-3.44 h 52.62 c 11.52,0 22.5,2.03 33.75,3.44 V 1080 Z m -33.71,240 h -52.62 c -84.72,0 -153.67,68.95 -153.67,153.71 0,12.54 1.56,25.08 4.61,37.34 l 84.53,338.01 c 10.39,41.8 47.77,70.94 90.86,70.94 43.09,0 80.47,-29.14 90.9,-70.98 l 84.53,-338.04 c 3.01,-12.23 4.57,-24.73 4.57,-37.27 0,-84.76 -68.95,-153.71 -153.71,-153.71 z m 173.51,580.04 c -16.25,44.14 -45.97,80.43 -84.02,105.12 l 151.68,515.62 c 40.16,1.37 79.88,5.39 118.32,11.56 z m 121.02,744.92 41.29,51.56 c 100.62,125.75 178.79,265.78 235.74,415.86 36.99,-121.64 58.24,-247.03 61.68,-374.1 -60.51,-26.17 -194.73,-77.66 -338.71,-93.32 z M 1680,3600 c 224.14,0 452.11,-71.21 540,-101.88 v -113.16 c -112.42,36.72 -324.49,95.04 -540,95.04 -215.51,0 -427.58,-58.32 -540,-95.12 v 113.24 c 87.89,30.67 315.86,101.88 540,101.88 z M 120,1958.59 c 0,159.77 44.77,315.82 129.41,451.25 97.27,155.63 245.121,277.62 416.41,343.52 l 241.879,92.97 C 903.051,2797.81 900,2749.02 900,2700 v -37.07 l 33.16,-16.56 c 6.25,-3.13 99.18,-48.91 227.31,-84.49 l 261.17,-888.05 -33.44,-133.75 c -5.43,-21.64 -8.2,-43.99 -8.2,-66.37 0,-93.94 47.66,-176.91 120,-226.25 V 360 H 1380 V 120 h -240 v 240 c 0,310.551 -237.23,566.762 -540,596.949 V 1680 c 0,206.29 -68.16,410.94 -191.988,576.02 l -96.024,-72.04 C 420.309,2039.53 480,1860.47 480,1680 V 480 H 180 c -33.051,0 -60,26.879 -60,60 z M 300,240 c -33.051,0 -60,26.879 -60,60 v 60 H 480 V 240 Z M 600,835.859 C 836.41,806.172 1020,604.34 1020,360 V 120 H 600 Z M 2340,120 v 240 c 0,244.34 183.59,446.172 420,475.859 V 120 Z m 720,120 h -180 v 120 h 240 v -60 c 0,-33.121 -26.95,-60 -60,-60 z m 180,300 c 0,-33.121 -26.95,-60 -60,-60 h -300 v 1200 c 0,180.55 59.69,359.53 168.01,503.98 l -96.02,72.04 C 2828.16,2090.94 2760,1886.29 2760,1680 V 956.949 C 2457.23,926.719 2220,670.551 2220,360 V 120 h -240 v 240 h -120 v 887.46 c 72.34,49.34 120,132.31 120,226.25 0,22.38 -2.77,44.73 -8.16,66.37 l -33.4,133.75 261.17,888.05 c 128.05,35.58 221.01,81.28 227.27,84.49 l 33.12,16.56 V 2700 c 0,43.91 -2.15,87.66 -5.9,131.29 l 233.6,-83.48 c 175.7,-62.73 326.87,-184.41 425.78,-342.65 C 3196.25,2272.81 3240,2120.27 3240,1964.1 Z" /><path
         id="path16"
         style="fill:#e54d00;fill-opacity:1;fill-rule:nonzero;stroke:none"
         d="m 1740,1500 c 0,-33.12 -26.88,-60 -60,-60 -33.12,0 -60,26.88 -60,60 0,33.12 26.88,60 60,60 33.12,0 60,-26.88 60,-60 z" /><path
         id="path18"
         style="fill:#e54d00;fill-opacity:1;fill-rule:nonzero;stroke:none"
         d="m 2520,2040 h -240 c -66.17,0 -120,-53.83 -120,-120 v -120 c 0,-66.17 53.83,-120 120,-120 h 240 c 66.17,0 120,53.83 120,120 v 120 c 0,66.17 -53.83,120 -120,120 z m -240,-240 v 120 h 240 l 0.08,-120 z" /></g></g></svg>
