<?xml version="1.0" encoding="UTF-8" standalone="no"?>
<svg
   xmlns:dc="http://purl.org/dc/elements/1.1/"
   xmlns:cc="http://creativecommons.org/ns#"
   xmlns:rdf="http://www.w3.org/1999/02/22-rdf-syntax-ns#"
   xmlns:svg="http://www.w3.org/2000/svg"
   xmlns="http://www.w3.org/2000/svg"
   viewBox="0 0 512 389.33334"
   height="389.33334"
   width="512"
   xml:space="preserve"
   id="svg2"
   version="1.1"><metadata
     id="metadata8"><rdf:RDF><cc:Work
         rdf:about=""><dc:format>image/svg+xml</dc:format><dc:type
           rdf:resource="http://purl.org/dc/dcmitype/StillImage" /></cc:Work></rdf:RDF></metadata><defs
     id="defs6" /><g
     transform="matrix(1.3333333,0,0,-1.3333333,0,389.33333)"
     id="g10"><g
       transform="scale(0.1)"
       id="g12"><path
         id="path14"
         style="fill:#e54d00;fill-opacity:1;fill-rule:nonzero;stroke:none"
         d="m 2710.27,2455.04 c 0,66.01 -53.71,119.73 -119.72,119.73 h -680.51 c -526.8,0 -1004.88,-312.11 -1217.97,-795.08 -13.75,-31.14 -10.82,-66.76 7.77,-95.31 18.711,-28.68 50.281,-45.79 84.461,-45.79 H 2590.55 c 66.01,0 119.72,53.68 119.72,119.69 z M 2112.3,1751.09 h -649.21 v 165.12 c 0,14.49 11.79,26.25 26.25,26.25 h 596.71 c 14.5,0 26.25,-11.76 26.25,-26.25 z m 485.47,7.19 c 0,-3.98 -3.24,-7.19 -7.22,-7.19 H 2224.8 v 165.12 c 0,76.52 -62.22,138.75 -138.75,138.75 h -596.71 c -76.53,0 -138.75,-62.23 -138.75,-138.75 V 1751.09 H 802.539 c 198.711,432.66 631.371,711.14 1107.501,711.14 h 680.51 c 3.98,0 7.22,-3.25 7.22,-7.23 z" /><path
         id="path16"
         style="fill:#e54d00;fill-opacity:1;fill-rule:nonzero;stroke:none"
         d="m 2597.77,1502.46 v -177.73 c 0,-31.06 25.2,-56.25 56.25,-56.25 31.1,0 56.25,25.19 56.25,56.25 v 177.73 c 0,31.06 -25.15,56.25 -56.25,56.25 -31.05,0 -56.25,-25.19 -56.25,-56.25 z" /><path
         id="path18"
         style="fill:#e54d00;fill-opacity:1;fill-rule:nonzero;stroke:none"
         d="m 2399.88,1502.46 v -177.73 c 0,-31.06 25.16,-56.25 56.25,-56.25 31.06,0 56.25,25.19 56.25,56.25 v 177.73 c 0,31.06 -25.19,56.25 -56.25,56.25 -31.09,0 -56.25,-25.19 -56.25,-56.25 z" /><path
         id="path20"
         style="fill:#e54d00;fill-opacity:1;fill-rule:nonzero;stroke:none"
         d="m 2201.99,1502.46 v -177.73 c 0,-31.06 25.16,-56.25 56.25,-56.25 31.06,0 56.25,25.19 56.25,56.25 v 177.73 c 0,31.06 -25.19,56.25 -56.25,56.25 -31.09,0 -56.25,-25.19 -56.25,-56.25 z" /><path
         id="path22"
         style="fill:#e54d00;fill-opacity:1;fill-rule:nonzero;stroke:none"
         d="m 3567.85,2440.27 h -96.37 v 33.64 c 0,67.07 -54.57,121.64 -121.64,121.64 H 3160.9 v 153.94 c 0,92.62 -75.31,167.93 -167.93,167.93 H 1910.04 c -121.13,0 -242.23,-12.22 -359.88,-36.4 -30.43,-6.22 -50.04,-35.98 -43.79,-66.41 6.25,-30.39 35.93,-50.04 66.4,-43.79 110.24,22.62 223.71,34.1 337.27,34.1 h 1082.93 c 30.55,0 55.43,-24.84 55.43,-55.43 V 1588.12 c -0.47,0 -42.23,0 -41.76,0 -83.71,0 -149.65,-68.04 -149.65,-149.64 V 1192.5 l -2614.65,0.04 c 22.89,671.64 453.711,1273.24 1086.49,1508.4 29.14,10.82 43.98,43.2 33.16,72.3 -10.82,29.14 -43.2,43.99 -72.34,33.13 C 952.379,2681.05 663.828,2458.91 455.121,2163.98 251.211,1875.82 139.219,1538.55 129.648,1185.74 54.9219,1164.53 0,1095.74 0,1014.34 0,916.051 79.9219,836.129 178.199,836.129 H 2203.2 c 31.06,0 56.25,25.203 56.25,56.25 0,31.101 -25.19,56.25 -56.25,56.25 H 178.199 c -36.25,0 -65.699,29.461 -65.699,65.711 0,36.21 29.449,65.66 65.699,65.66 H 2955.35 c 36.21,0 65.7,-29.45 65.7,-65.66 0,-36.25 -29.49,-65.711 -65.7,-65.711 h -489.69 c -31.05,0 -56.25,-25.149 -56.25,-56.25 0,-31.047 25.2,-56.25 56.25,-56.25 h 489.69 c 98.24,0 178.2,79.922 178.2,178.211 0,93.47 -72.38,170.31 -164.06,177.57 v 246.57 c 0,9.72 4.34,19.41 8.17,23.24 14.57,18.16 33.32,13.9 74.88,13.9 59.73,0 108.36,48.64 108.36,108.36 v 588.48 h 188.9 c 67.11,0 121.68,54.57 121.68,121.64 v 33.67 h 96.37 c 88.01,0 159.65,-71.64 159.65,-159.68 V 535.309 c 0,-88.039 -71.64,-159.649 -159.65,-159.649 h -1560.7 c -26.6,147.93 -156.21,260.551 -311.72,260.551 h -215.66 c -47.58,0 -86.25,-38.672 -86.25,-86.25 V 502.27 h -204.34 c -31.06,0 -56.25,-25.161 -56.25,-56.25 0,-31.059 25.19,-56.25 56.25,-56.25 h 204.34 V 249.02 h -204.34 c -31.06,0 -56.25,-25.149 -56.25,-56.25 0,-31.051 25.19,-56.25 56.25,-56.25 h 204.34 V 88.832 c 0,-47.5429 38.67,-86.24997 86.25,-86.24997 h 215.66 c 155.51,0 285.08,112.64797 311.72,260.57797 h 1560.7 c 150.04,0 272.15,122.07 272.15,272.149 V 2168.09 c 0,150.07 -122.07,272.18 -272.15,272.18 z M 3358.98,2294.1 c 0,-5.04 -4.1,-9.14 -9.14,-9.14 H 3160.9 v 198.09 h 188.94 c 5.04,0 9.14,-4.1 9.14,-9.14 z M 1695.43,115.082 h -189.41 v 408.629 h 189.41 c 112.66,0 204.34,-91.641 204.34,-204.301 0,-112.648 -91.68,-204.328 -204.34,-204.328 z" /></g></g></svg>
