<?xml version="1.0" encoding="UTF-8" standalone="no"?>
<svg
   xmlns:dc="http://purl.org/dc/elements/1.1/"
   xmlns:cc="http://creativecommons.org/ns#"
   xmlns:rdf="http://www.w3.org/1999/02/22-rdf-syntax-ns#"
   xmlns:svg="http://www.w3.org/2000/svg"
   xmlns="http://www.w3.org/2000/svg"
   viewBox="0 0 682.66669 682.65332"
   height="682.65332"
   width="682.66669"
   xml:space="preserve"
   id="svg2"
   version="1.1"><metadata
     id="metadata8"><rdf:RDF><cc:Work
         rdf:about=""><dc:format>image/svg+xml</dc:format><dc:type
           rdf:resource="http://purl.org/dc/dcmitype/StillImage" /></cc:Work></rdf:RDF></metadata><defs
     id="defs6" /><g
     transform="matrix(1.3333333,0,0,-1.3333333,0,682.65333)"
     id="g10"><g
       transform="scale(0.1)"
       id="g12"><path
         id="path14"
         style="fill:#E34C00;fill-opacity:1;fill-rule:nonzero;stroke:none"
         d="m 3199.91,3626.56 c 0,-353.55 -286.44,-640 -640,-640 -353.55,0 -640,286.45 -640,640 0,353.56 286.45,640 640,640 353.56,0 640,-286.44 640,-640 z m -426.66,0 c 0,117.92 -95.42,213.34 -213.34,213.34 -117.91,0 -213.33,-95.42 -213.33,-213.34 0,-117.91 95.42,-213.33 213.33,-213.33 117.92,0 213.34,95.42 213.34,213.33" /><path
         id="path16"
         style="fill:#E34C00;fill-opacity:1;fill-rule:nonzero;stroke:none"
         d="m 3332.28,2854.41 10.36,16.29 c 58.36,91.73 86.51,136.04 119.91,188.81 106.68,168.5 164.03,363.16 164.03,567.05 0,636.21 -552.33,1132.41 -1192.89,1059.51 -472.07,-53.85 -864.39,-436.14 -929.67,-906.03 -39.65,-285.47 32.34,-560.96 196.11,-783.32 296.64,-402.13 527.39,-800.2 859.35,-1453.82 190.96,380.29 371.31,680.42 772.8,1311.51 z m 720.97,772.15 c 0,-285.35 -80.63,-559.03 -230.2,-795.27 -33.61,-53.1 -61.89,-97.61 -120.42,-189.61 l -10.36,-16.29 C 3294.04,1999.41 3119.3,1708.22 2934.64,1339.2 L 2750.75,971.199 C 2672.16,813.93 2447.73,813.898 2369.1,971.16 l -86.81,173.62 C 1902.43,1904.22 1665,2325.6 1356.67,2743.57 c -229.22,311.24 -330.37,698.35 -275.26,1095.18 92.1,662.89 638.5,1195.33 1303.98,1271.25 894.36,101.78 1667.86,-593.11 1667.86,-1483.44" /><path
         id="path18"
         style="fill:#E34C00;fill-opacity:1;fill-rule:nonzero;stroke:none"
         d="m 3790.35,1574.4 c 572.12,-135.67 902.98,-352.74 902.98,-507.73 0,-294.791 -949.49,-639.998 -2133.33,-639.998 -1183.98,0 -2133.332,345.18 -2133.332,639.998 0,155.08 330.531,372.09 902.352,507.73 114.64,27.2 185.53,142.17 158.34,256.81 -27.19,114.64 -142.17,185.53 -256.81,158.34 C 482.047,1812 0,1495.51 0,1066.67 0,418.629 1151.34,0 2560,0 c 1408.53,0 2560,418.648 2560,1066.67 0,428.85 -482.35,745.31 -1231.2,922.88 -114.65,27.19 -229.62,-43.71 -256.8,-158.35 -27.19,-114.64 43.71,-229.62 158.35,-256.8" /></g></g></svg>
