<?xml version="1.0" encoding="UTF-8" standalone="no"?>
<svg
   xmlns:dc="http://purl.org/dc/elements/1.1/"
   xmlns:cc="http://creativecommons.org/ns#"
   xmlns:rdf="http://www.w3.org/1999/02/22-rdf-syntax-ns#"
   xmlns:svg="http://www.w3.org/2000/svg"
   xmlns="http://www.w3.org/2000/svg"
   viewBox="0 0 682.66669 682.66669"
   height="682.66669"
   width="682.66669"
   xml:space="preserve"
   id="svg2"
   version="1.1"><metadata
     id="metadata8"><rdf:RDF><cc:Work
         rdf:about=""><dc:format>image/svg+xml</dc:format><dc:type
           rdf:resource="http://purl.org/dc/dcmitype/StillImage" /></cc:Work></rdf:RDF></metadata><defs
     id="defs6" /><g
     transform="matrix(1.3333333,0,0,-1.3333333,0,682.66667)"
     id="g10"><g
       transform="scale(0.1)"
       id="g12"><path
         id="path14"
         style="fill:#E34C00;fill-opacity:1;fill-rule:nonzero;stroke:none"
         d="M 1280,4693.33 H 4693.33 V 426.672 H 1280 V 1706.67 c 0,117.82 -95.51,213.33 -213.33,213.33 -117.822,0 -213.338,-95.51 -213.338,-213.33 V 213.332 C 853.332,95.5117 948.848,0 1066.67,0 h 3840 C 5024.49,0 5120,95.5117 5120,213.332 V 4906.67 c 0,117.82 -95.51,213.33 -213.33,213.33 h -3840 c -117.822,0 -213.338,-95.51 -213.338,-213.33 V 3413.33 c 0,-117.82 95.516,-213.33 213.338,-213.33 117.82,0 213.33,95.51 213.33,213.33 v 1280" /><path
         id="path16"
         style="fill:#E34C00;fill-opacity:1;fill-rule:nonzero;stroke:none"
         d="M 213.332,2346.65 H 2986.67 c 117.82,0 213.33,95.51 213.33,213.33 0,117.82 -95.51,213.33 -213.33,213.33 H 213.332 C 95.5117,2773.31 0,2677.8 0,2559.98 0,2442.16 95.5117,2346.65 213.332,2346.65" /><path
         id="path18"
         style="fill:#E34C00;fill-opacity:1;fill-rule:nonzero;stroke:none"
         d="m 3137.52,2710.83 -853.34,853.33 c -83.31,83.31 -218.38,83.31 -301.7,0 -83.31,-83.31 -83.31,-218.39 0,-301.7 l 853.34,-853.33 c 83.31,-83.31 218.38,-83.31 301.7,0 83.31,83.31 83.31,218.39 0,301.7" /><path
         id="path20"
         style="fill:#E34C00;fill-opacity:1;fill-rule:nonzero;stroke:none"
         d="m 2835.82,2710.83 -853.34,-853.34 c -83.31,-83.31 -83.31,-218.38 0,-301.69 83.32,-83.32 218.39,-83.32 301.7,0 l 853.34,853.33 c 83.31,83.31 83.31,218.39 0,301.7 -83.32,83.31 -218.39,83.31 -301.7,0" /></g></g></svg>
