<?xml version="1.0" encoding="UTF-8" standalone="no"?>
<svg
   xmlns:dc="http://purl.org/dc/elements/1.1/"
   xmlns:cc="http://creativecommons.org/ns#"
   xmlns:rdf="http://www.w3.org/1999/02/22-rdf-syntax-ns#"
   xmlns:svg="http://www.w3.org/2000/svg"
   xmlns="http://www.w3.org/2000/svg"
   viewBox="0 0 682.66669 682.66669"
   height="682.66669"
   width="682.66669"
   xml:space="preserve"
   id="svg2"
   version="1.1"><metadata
     id="metadata8"><rdf:RDF><cc:Work
         rdf:about=""><dc:format>image/svg+xml</dc:format><dc:type
           rdf:resource="http://purl.org/dc/dcmitype/StillImage" /></cc:Work></rdf:RDF></metadata><defs
     id="defs6" /><g
     transform="matrix(1.3333333,0,0,-1.3333333,0,682.66667)"
     id="g10"><g
       transform="scale(0.1)"
       id="g12"><path
         id="path14"
         style="fill:#fff;fill-opacity:1;fill-rule:nonzero;stroke:none"
         d="M 5120,2560 C 5120,1146.18 3973.82,0 2560,0 1146.18,0 0,1146.18 0,2560 0,3973.82 1146.18,5120 2560,5120 3973.82,5120 5120,3973.82 5120,2560 Z m -426.67,0 C 4693.33,3738.18 3738.18,4693.33 2560,4693.33 1381.82,4693.33 426.668,3738.18 426.668,2560 426.668,1381.82 1381.82,426.672 2560,426.672 c 1178.18,0 2133.33,955.148 2133.33,2133.328" /><path
         id="path16"
         style="fill:#fff;fill-opacity:1;fill-rule:nonzero;stroke:none"
         d="M 2346.67,3840 V 1280 c 0,-117.82 95.51,-213.33 213.33,-213.33 117.82,0 213.33,95.51 213.33,213.33 v 2560 c 0,117.82 -95.51,213.33 -213.33,213.33 -117.82,0 -213.33,-95.51 -213.33,-213.33" /><path
         id="path18"
         style="fill:#fff;fill-opacity:1;fill-rule:nonzero;stroke:none"
         d="m 1280.38,2346.67 h 2559.58 c 117.82,0 213.33,95.51 213.33,213.33 0,117.82 -95.51,213.33 -213.33,213.33 H 1280.38 c -117.82,0 -213.33,-95.51 -213.33,-213.33 0,-117.82 95.51,-213.33 213.33,-213.33" /></g></g></svg>
