<?xml version="1.0" encoding="UTF-8" standalone="no"?>
<svg
   xmlns:dc="http://purl.org/dc/elements/1.1/"
   xmlns:cc="http://creativecommons.org/ns#"
   xmlns:rdf="http://www.w3.org/1999/02/22-rdf-syntax-ns#"
   xmlns:svg="http://www.w3.org/2000/svg"
   xmlns="http://www.w3.org/2000/svg"
   viewBox="0 0 682.01331 682.66669"
   height="682.66669"
   width="682.01331"
   xml:space="preserve"
   id="svg2"
   version="1.1"><metadata
     id="metadata8"><rdf:RDF><cc:Work
         rdf:about=""><dc:format>image/svg+xml</dc:format><dc:type
           rdf:resource="http://purl.org/dc/dcmitype/StillImage" /></cc:Work></rdf:RDF></metadata><defs
     id="defs6" /><g
     transform="matrix(1.3333333,0,0,-1.3333333,0,682.66667)"
     id="g10"><g
       transform="scale(0.1)"
       id="g12"><path
         id="path14"
         style="fill:#E54D00;fill-opacity:1;fill-rule:nonzero;stroke:none"
         d="m 3413.33,3200 c 0,824.69 -668.64,1493.33 -1493.33,1493.33 -824.69,0 -1493.332,-668.64 -1493.332,-1493.33 0,-824.69 668.642,-1493.33 1493.332,-1493.33 824.69,0 1493.33,668.64 1493.33,1493.33 z m 426.67,0 C 3840,2139.67 2980.33,1280 1920,1280 859.672,1280 0,2139.67 0,3200 c 0,1060.33 859.672,1920 1920,1920 1060.33,0 1920,-859.67 1920,-1920" /><path
         id="path16"
         style="fill:#E54D00;fill-opacity:1;fill-rule:nonzero;stroke:none"
         d="m 5052.65,364.18 -1777.49,1777.5 c -83.31,83.31 -218.39,83.31 -301.7,0 -83.31,-83.32 -83.31,-218.39 0,-301.7 L 4750.95,62.4805 c 83.32,-83.3086 218.39,-83.3086 301.7,0 83.31,83.3205 83.31,218.3905 0,301.6995" /></g></g></svg>
