<?xml version="1.0" encoding="UTF-8" standalone="no"?>
<svg
   xmlns:dc="http://purl.org/dc/elements/1.1/"
   xmlns:cc="http://creativecommons.org/ns#"
   xmlns:rdf="http://www.w3.org/1999/02/22-rdf-syntax-ns#"
   xmlns:svg="http://www.w3.org/2000/svg"
   xmlns="http://www.w3.org/2000/svg"
   viewBox="0 0 105.33333 106.66667"
   height="106.66667"
   width="105.33333"
   xml:space="preserve"
   id="svg2"
   version="1.1"><metadata
     id="metadata8"><rdf:RDF><cc:Work
         rdf:about=""><dc:format>image/svg+xml</dc:format><dc:type
           rdf:resource="http://purl.org/dc/dcmitype/StillImage" /></cc:Work></rdf:RDF></metadata><defs
     id="defs6"><clipPath
       id="clipPath20"
       clipPathUnits="userSpaceOnUse"><path
         id="path18"
         d="M 0,2 H 790 V 792 H 0 Z" /></clipPath></defs><g
     transform="matrix(1.3333333,0,0,-1.3333333,0,106.66667)"
     id="g10"><g
       transform="scale(0.1)"
       id="g12"><g
         id="g14"><g
           clip-path="url(#clipPath20)"
           id="g16"><path
             id="path22"
             style="fill:#008BCC;fill-opacity:1;fill-rule:evenodd;stroke:none"
             d="M 391.02,792 C 175.078,792 0,616.961 0,400.98 0,185.051 175.078,10.0117 391.02,10.0117 606.949,10.0117 781.988,185.051 781.988,400.98 781.988,616.961 606.949,792 391.02,792 Z M 589.34,358.719 c 18.238,-17.809 37.5,-34.571 53.859,-54.18 7.231,-8.711 14.071,-17.699 19.301,-27.809 7.422,-14.378 0.699,-30.199 -12.191,-31.058 l -80.11,0.039 c -20.668,-1.723 -37.148,6.598 -51.019,20.738 -11.09,11.289 -21.371,23.321 -32.032,35 -4.378,4.77 -8.949,9.262 -14.418,12.821 -10.929,7.101 -20.429,4.921 -26.679,-6.489 -6.36,-11.601 -7.813,-24.453 -8.43,-37.383 -0.859,-18.867 -6.57,-23.828 -25.512,-24.687 -40.507,-1.91 -78.949,4.219 -114.648,24.648 -31.481,18.012 -55.902,43.442 -77.152,72.231 -41.36,56.051 -73.039,117.648 -101.52,180.969 -6.41,14.261 -1.719,21.921 14.02,22.191 26.14,0.512 52.269,0.469 78.441,0.039 10.629,-0.16 17.66,-6.25 21.762,-16.289 14.136,-34.77 31.437,-67.852 53.16,-98.52 5.777,-8.16 11.68,-16.32 20.078,-22.07 9.301,-6.359 16.371,-4.25 20.738,6.102 2.782,6.558 3.992,13.629 4.614,20.66 2.07,24.18 2.347,48.316 -1.293,72.418 -2.219,15.039 -10.7,24.769 -25.7,27.621 -7.66,1.449 -6.519,4.301 -2.808,8.668 6.437,7.543 12.5,12.23 24.57,12.23 h 90.539 c 14.262,-2.808 17.43,-9.218 19.379,-23.558 l 0.082,-100.582 c -0.16,-5.547 2.77,-22.028 12.77,-25.699 8.007,-2.622 13.281,3.781 18.089,8.859 21.68,23.012 37.149,50.199 50.969,78.359 6.141,12.383 11.41,25.242 16.531,38.09 3.79,9.531 9.719,14.223 20.469,14.024 l 87.141,-0.082 c 2.582,0 5.199,-0.04 7.699,-0.469 14.691,-2.5 18.711,-8.821 14.18,-23.16 -7.149,-22.5 -21.059,-41.25 -34.649,-60.082 -14.531,-20.11 -30.082,-39.528 -44.492,-59.758 -13.238,-18.481 -12.187,-27.781 4.262,-43.832 z" /></g></g></g></g></svg>
