<?xml version="1.0" encoding="UTF-8" standalone="no"?>
<svg
   xmlns:dc="http://purl.org/dc/elements/1.1/"
   xmlns:cc="http://creativecommons.org/ns#"
   xmlns:rdf="http://www.w3.org/1999/02/22-rdf-syntax-ns#"
   xmlns:svg="http://www.w3.org/2000/svg"
   xmlns="http://www.w3.org/2000/svg"
   viewBox="0 0 682.66669 682.66669"
   height="682.66669"
   width="682.66669"
   xml:space="preserve"
   id="svg2"
   version="1.1">
   <radialGradient id="rg" r="150%" cx="30%" cy="107%">
     <stop stop-color="#fdf497" offset="0" />
     <stop stop-color="#fdf497" offset="0.05" />
     <stop stop-color="#fd5949" offset="0.45" />
     <stop stop-color="#d6249f" offset="0.6" />
     <stop stop-color="#285AEB" offset="0.9" />
   </radialGradient><metadata
     id="metadata8"><rdf:RDF><cc:Work
         rdf:about=""><dc:format>image/svg+xml</dc:format><dc:type
           rdf:resource="http://purl.org/dc/dcmitype/StillImage" /></cc:Work></rdf:RDF></metadata><defs
     id="defs6" /><g
     transform="matrix(1.3333333,0,0,-1.3333333,0,682.66667)"
     id="g10"><g
       transform="scale(0.1)"
       id="g12"><path
         id="path14"
         style="fill:url(#rg); fill-rule:nonzero;stroke:none"
         d="m 3050,2560 c 0,-270.62 -219.38,-490 -490,-490 -270.62,0 -490,219.38 -490,490 0,270.62 219.38,490 490,490 270.62,0 490,-219.38 490,-490 z" /><path
         id="path16"
         style="fill:url(#rg); fill-rule:nonzero;stroke:none"
         d="m 3705.94,3426.95 c -23.56,63.83 -61.14,121.6 -109.96,169.03 -47.43,48.82 -105.16,86.4 -169.03,109.96 -51.79,20.11 -129.61,44.06 -272.93,50.58 -155.04,7.07 -201.52,8.6 -594.02,8.6 -392.54,0 -439.02,-1.49 -594.02,-8.56 -143.32,-6.56 -221.18,-30.51 -272.93,-50.62 -63.87,-23.56 -121.64,-61.14 -169.03,-109.96 -48.82,-47.43 -86.4,-105.16 -110,-169.03 -20.11,-51.79 -44.06,-129.65 -50.58,-272.97 -7.07,-155 -8.6,-201.48 -8.6,-594.02 0,-392.5 1.53,-438.98 8.6,-594.02 6.52,-143.32 30.47,-221.14 50.58,-272.93 23.6,-63.87 61.14,-121.6 109.96,-169.03 47.43,-48.82 105.16,-86.4 169.03,-109.96 51.79,-20.15 129.65,-44.1 272.97,-50.62 155,-7.07 201.44,-8.56 593.98,-8.56 392.58,0 439.06,1.49 594.02,8.56 143.32,6.52 221.18,30.47 272.97,50.62 128.21,49.46 229.53,150.78 278.99,278.99 20.11,51.79 44.06,129.61 50.62,272.93 7.07,155.04 8.56,201.52 8.56,594.02 0,392.54 -1.49,439.02 -8.56,594.02 -6.52,143.32 -30.47,221.18 -50.62,272.97 z M 2560,1805.16 c -416.91,0 -754.88,337.93 -754.88,754.84 0,416.91 337.97,754.84 754.88,754.84 416.88,0 754.84,-337.93 754.84,-754.84 0,-416.91 -337.96,-754.84 -754.84,-754.84 z m 784.69,1363.12 c -97.42,0 -176.41,78.99 -176.41,176.41 0,97.42 78.99,176.4 176.41,176.4 97.42,0 176.4,-78.98 176.4,-176.4 -0.04,-97.42 -78.98,-176.41 -176.4,-176.41 z" /><path
         id="path18"
         style="fill:url(#rg); fill-rule:nonzero;stroke:none"
         d="M 2560,5120 C 1146.37,5120 0,3973.63 0,2560 0,1146.37 1146.37,0 2560,0 3973.63,0 5120,1146.37 5120,2560 5120,3973.63 3973.63,5120 2560,5120 Z M 4021.13,1953.95 c -7.11,-156.49 -31.99,-263.33 -68.32,-356.84 -76.36,-197.46 -232.46,-353.56 -429.92,-429.92 -93.48,-36.33 -200.35,-61.17 -356.8,-68.32 -156.75,-7.15 -206.83,-8.87 -606.05,-8.87 -399.26,0 -449.3,1.72 -606.09,8.87 -156.45,7.15 -263.33,31.99 -356.8,68.32 -98.13,36.91 -186.95,94.76 -260.39,169.57 -74.77,73.4 -132.62,162.26 -169.53,260.35 -36.33,93.48 -61.21,200.35 -68.32,356.8 -7.23,156.79 -8.91,206.87 -8.91,606.09 0,399.22 1.68,449.3 8.87,606.05 7.11,156.49 31.95,263.33 68.28,356.84 36.91,98.09 94.8,186.95 169.61,260.35 73.4,74.81 162.26,132.66 260.35,169.57 93.51,36.33 200.35,61.17 356.84,68.32 156.75,7.15 206.83,8.87 606.05,8.87 399.22,0 449.3,-1.72 606.05,-8.91 156.49,-7.11 263.33,-31.95 356.84,-68.24 98.09,-36.91 186.95,-94.8 260.39,-169.61 74.77,-73.44 132.66,-162.26 169.53,-260.35 36.37,-93.51 61.21,-200.35 68.36,-356.84 7.15,-156.75 8.83,-206.83 8.83,-606.05 0,-399.22 -1.68,-449.3 -8.87,-606.05 z" /></g></g></svg>
