<?xml version="1.0" encoding="UTF-8" standalone="no"?>
<svg
   xmlns:dc="http://purl.org/dc/elements/1.1/"
   xmlns:cc="http://creativecommons.org/ns#"
   xmlns:rdf="http://www.w3.org/1999/02/22-rdf-syntax-ns#"
   xmlns:svg="http://www.w3.org/2000/svg"
   xmlns="http://www.w3.org/2000/svg"
   viewBox="0 0 105.33333 106.66667"
   height="106.66667"
   width="105.33333"
   xml:space="preserve"
   id="svg2"
   version="1.1"><metadata
     id="metadata8"><rdf:RDF><cc:Work
         rdf:about=""><dc:format>image/svg+xml</dc:format><dc:type
           rdf:resource="http://purl.org/dc/dcmitype/StillImage" /></cc:Work></rdf:RDF></metadata><defs
     id="defs6"><clipPath
       id="clipPath20"
       clipPathUnits="userSpaceOnUse"><path
         id="path18"
         d="M 0,2 H 790 V 792 H 0 Z" /></clipPath></defs><g
     transform="matrix(1.3333333,0,0,-1.3333333,0,106.66667)"
     id="g10"><g
       transform="scale(0.1)"
       id="g12"><g
         id="g14"><g
           clip-path="url(#clipPath20)"
           id="g16"><path
             id="path22"
             style="fill:#FF6600;fill-opacity:1;fill-rule:evenodd;stroke:none"
             d="m 391.371,467.941 c 37.34,0.149 67.07,30.11 66.949,67.539 -0.16,37.461 -29.961,67.219 -67.3,67.258 -37.661,0.043 -67.739,-30.308 -67.469,-68.078 0.277,-37.269 30.359,-66.84 67.82,-66.719 z" /><path
             id="path24"
             style="fill:#FF6600;fill-opacity:1;fill-rule:evenodd;stroke:none"
             d="M 391.02,792 C 175.039,792 0,616.922 0,400.98 0,185.051 175.039,10.0117 391.02,10.0117 606.949,10.0117 781.988,185.051 781.988,400.98 781.988,616.922 606.949,792 391.02,792 Z m 0.539,-118.91 c 76.171,-0.192 137.269,-62.5 136.882,-139.488 -0.351,-75.231 -62.5,-136.211 -138.519,-135.942 -75.274,0.238 -136.992,62.66 -136.524,138.012 0.391,76.207 62.153,137.617 138.161,137.418 z M 545.82,343.559 c -16.84,-17.297 -37.109,-29.797 -59.648,-38.547 -21.25,-8.242 -44.57,-12.391 -67.652,-15.16 3.468,-3.793 5.109,-5.661 7.3,-7.852 31.328,-31.48 62.809,-62.809 94.02,-94.41 10.629,-10.75 12.859,-24.11 7,-36.61 -6.41,-13.671 -20.75,-22.691 -34.809,-21.71 -8.91,0.621 -15.859,5.031 -22.031,11.25 -23.629,23.781 -47.73,47.179 -70.898,71.402 -6.762,7.066 -10,5.699 -15.942,-0.391 -23.781,-24.492 -47.961,-48.633 -72.262,-72.582 -10.937,-10.777 -23.91,-12.73 -36.597,-6.558 -13.442,6.519 -22.031,20.23 -21.371,34.058 0.468,9.34 5.082,16.492 11.48,22.891 31.02,30.941 61.918,62 92.86,93.012 2.07,2.07 3.98,4.257 6.949,7.457 -42.188,4.382 -80.239,14.769 -112.809,40.242 -4.031,3.16 -8.211,6.25 -11.879,9.758 -14.261,13.711 -15.703,29.382 -4.41,45.55 9.649,13.832 25.82,17.5 42.649,9.571 3.281,-1.52 6.371,-3.481 9.378,-5.508 60.661,-41.723 144.063,-42.852 204.961,-1.871 6.051,4.609 12.5,8.398 19.961,10.308 14.571,3.75 28.129,-1.597 35.899,-14.339 8.941,-14.532 8.832,-28.711 -2.149,-39.961 z" /></g></g></g></g></svg>
