<?xml version="1.0" encoding="UTF-8" standalone="no"?>
<svg
   xmlns:dc="http://purl.org/dc/elements/1.1/"
   xmlns:cc="http://creativecommons.org/ns#"
   xmlns:rdf="http://www.w3.org/1999/02/22-rdf-syntax-ns#"
   xmlns:svg="http://www.w3.org/2000/svg"
   xmlns="http://www.w3.org/2000/svg"
   viewBox="0 0 120 121.33333"
   height="121.33333"
   width="120"
   xml:space="preserve"
   id="svg2"
   version="1.1">
   <metadata
     id="metadata8"><rdf:RDF><cc:Work
         rdf:about=""><dc:format>image/svg+xml</dc:format><dc:type
           rdf:resource="http://purl.org/dc/dcmitype/StillImage" /></cc:Work></rdf:RDF></metadata><defs
     id="defs6" /><g
     transform="matrix(1.3333333,0,0,-1.3333333,0,121.33333)"
     id="g10"><g
       transform="scale(0.1)"
       id="g12"><path
         id="path14"
         style="fill:#3B5998;fill-opacity:1;fill-rule:nonzero;stroke:none"
         d="M 897.578,458.781 C 897.578,210.93 696.641,9.98828 448.789,9.98828 200.941,9.98828 0,210.93 0,458.781 0,706.629 200.941,907.57 448.789,907.57 c 247.852,0 448.789,-200.941 448.789,-448.789 z" /><path
         id="path16"
         style="fill:#FFF;fill-opacity:1;fill-rule:nonzero;stroke:none"
         d="M 561.602,441.199 H 481.52 V 147.84 H 360.199 V 441.199 H 302.5 v 103.129 h 57.699 v 66.711 c 0,47.699 22.653,122.43 122.422,122.43 l 89.84,-0.391 V 633 H 507.27 c -10.711,0 -25.75,-5.352 -25.75,-28.09 v -60.699 h 90.71 z" /></g></g></svg>
