<?xml version="1.0" encoding="UTF-8" standalone="no"?>
<svg
   xmlns:dc="http://purl.org/dc/elements/1.1/"
   xmlns:cc="http://creativecommons.org/ns#"
   xmlns:rdf="http://www.w3.org/1999/02/22-rdf-syntax-ns#"
   xmlns:svg="http://www.w3.org/2000/svg"
   xmlns="http://www.w3.org/2000/svg"
   viewBox="0 0 568.89331 682.65332"
   height="682.65332"
   width="568.89331"
   xml:space="preserve"
   id="svg2"
   version="1.1"><metadata
     id="metadata8"><rdf:RDF><cc:Work
         rdf:about=""><dc:format>image/svg+xml</dc:format><dc:type
           rdf:resource="http://purl.org/dc/dcmitype/StillImage" /></cc:Work></rdf:RDF></metadata><defs
     id="defs6" /><g
     transform="matrix(1.3333333,0,0,-1.3333333,0,682.65333)"
     id="g10"><g
       transform="scale(0.1)"
       id="g12"><path
         id="path14"
         style="fill:#E34C00;fill-opacity:1;fill-rule:nonzero;stroke:none"
         d="m 2726.42,1498.44 c -97.3,21.94 -166.42,108.37 -166.42,208.12 v 644.9 c 0,66.91 31.39,129.95 84.79,170.26 214.21,161.72 341.88,409.19 341.88,678.17 v 742.19 c 0,414.87 -336.28,751.14 -751.15,751.14 h -204.37 c -414.88,0 -751.15,-336.27 -751.15,-751.14 v -742.19 c 0,-268.98 127.67,-516.45 341.87,-678.17 53.4,-40.31 84.8,-103.35 84.8,-170.26 v -644.9 c 0,-99.75 -69.12,-186.18 -166.43,-208.12 L 661.313,1300.33 C 518.453,1231.77 426.668,1086.9 426.668,927.461 V 653.488 L 616.047,605.391 C 1608.06,366.941 2651.35,366.992 3647.97,604.738 L 3840,653.5 v 273.961 c 0,159.439 -91.79,304.309 -234.65,372.869 z m 260.25,378.72 733.63,-165.37 37.14,-12.04 c 308.84,-132.4 509.23,-436.29 509.23,-772.289 V 487.57 c 0,-97.601 -66.24,-182.75 -160.83,-206.769 l -355.85,-90.34 C 2685.16,-63.5781 1573.78,-63.6406 513.68,191.199 L 160.828,280.801 C 66.2305,304.82 0,389.969 0,487.57 v 439.891 c 0,335.999 200.391,639.889 509.223,772.289 l 37.148,12.04 733.629,165.37 v 373.79 c -268.19,240.07 -426.668,581.08 -426.668,948.94 v 742.19 c 0,650.51 527.298,1177.81 1177.818,1177.81 h 204.37 c 650.51,0 1177.81,-527.3 1177.81,-1177.81 v -742.19 c 0,-367.86 -158.47,-708.87 -426.66,-948.94 v -373.79" /></g></g></svg>
